<?xml version="1.0" encoding="UTF-8" ?>
<!DOCTYPE svg PUBLIC "-//W3C//DTD SVG 1.1//EN" "http://www.w3.org/Graphics/SVG/1.1/DTD/svg11.dtd">
<svg width="380pt" height="385pt" viewBox="0 0 380 385" version="1.1" xmlns="http://www.w3.org/2000/svg">
<g id="#fcf5e7ff">
<path fill="#fcf5e7" opacity="1.00" d=" M 151.33 6.22 C 157.71 4.37 164.43 4.08 170.89 2.79 C 176.28 2.57 181.69 2.56 187.08 2.79 C 197.45 4.03 207.92 5.63 217.82 9.23 C 219.27 9.71 220.71 10.23 222.15 10.77 C 224.41 11.88 226.78 12.74 229.05 13.83 C 231.44 15.11 233.82 16.42 236.19 17.74 C 237.85 18.74 239.50 19.77 241.16 20.79 C 244.10 22.85 246.96 25.02 249.75 27.27 C 256.41 32.57 262.22 38.83 268.02 45.03 C 271.96 50.75 276.35 56.19 279.72 62.28 C 290.34 82.07 295.93 104.96 293.56 127.41 C 293.14 137.50 290.46 147.33 287.08 156.79 C 292.00 160.24 295.49 165.35 296.93 171.18 C 303.99 171.62 309.06 177.39 312.32 183.14 C 315.11 190.51 315.15 199.07 311.33 206.08 C 308.25 210.86 303.40 214.56 297.83 215.85 C 297.39 219.00 297.27 222.49 294.99 224.96 C 290.62 230.57 283.72 232.94 277.71 236.19 C 284.35 237.13 291.12 234.41 297.63 236.59 C 303.07 238.04 307.40 242.54 309.17 247.82 C 309.26 250.19 309.21 252.57 309.17 254.94 C 306.43 253.66 303.69 252.38 300.97 251.05 C 299.76 247.66 296.82 244.52 293.00 244.52 C 287.20 243.64 282.29 249.46 282.73 254.98 C 282.80 263.99 282.87 273.00 282.73 282.01 C 282.36 293.30 286.99 305.04 296.00 312.11 C 309.11 321.97 329.82 320.32 340.36 307.40 C 344.85 301.21 347.82 293.76 348.00 286.06 C 348.40 275.72 348.28 265.36 348.20 255.01 C 348.53 248.91 342.22 242.97 336.10 244.81 C 332.54 246.36 329.37 249.89 329.62 253.98 C 329.43 265.00 329.86 276.02 329.43 287.04 C 329.38 294.10 323.12 300.58 315.98 300.46 C 311.60 300.72 307.72 298.18 304.53 295.46 C 306.28 293.41 307.93 291.29 309.73 289.30 C 310.05 289.46 310.69 289.78 311.01 289.95 C 313.11 291.24 316.41 292.61 318.32 290.30 C 320.89 287.91 320.50 284.18 320.51 281.01 C 320.28 272.97 320.41 264.92 320.19 256.89 C 320.28 254.72 318.64 253.22 317.25 251.82 C 317.74 251.75 318.71 251.62 319.19 251.55 C 322.46 246.01 326.12 240.04 332.19 237.25 C 335.00 235.96 338.09 234.85 341.20 235.71 L 341.97 236.23 C 342.45 236.47 343.43 236.95 343.91 237.19 C 348.91 239.44 353.27 243.27 356.06 248.00 C 357.59 256.25 356.46 264.69 356.97 273.03 C 357.42 280.03 357.00 287.08 355.81 294.00 C 353.69 306.17 345.71 317.07 334.78 322.79 C 328.22 325.69 321.00 327.15 313.82 326.81 C 310.21 326.72 306.63 326.17 303.16 325.17 C 298.01 323.90 293.59 321.03 289.21 318.19 C 287.06 319.61 285.48 321.73 283.48 323.35 C 288.75 326.03 294.88 329.64 296.00 335.99 C 296.17 336.81 296.52 338.44 296.69 339.26 C 300.33 336.09 303.50 332.22 308.09 330.35 C 311.39 329.14 314.95 329.24 318.41 329.38 C 320.56 330.61 322.72 331.81 324.85 333.09 C 327.24 335.13 328.95 337.80 330.43 340.55 C 332.96 341.25 335.38 342.29 337.90 343.03 C 335.69 342.95 333.51 342.63 331.32 342.38 C 331.55 346.03 331.86 349.89 330.26 353.30 C 325.74 364.30 308.66 367.23 301.03 357.99 C 299.21 355.95 297.87 353.56 296.58 351.17 C 296.77 357.97 293.70 365.17 287.56 368.54 C 278.49 373.44 266.05 371.70 258.79 364.36 C 251.55 371.69 239.47 373.59 230.60 368.09 C 228.70 366.83 226.86 365.47 225.00 364.15 C 223.47 365.48 221.93 366.82 220.31 368.05 C 214.88 370.29 208.86 372.13 202.98 370.67 C 198.39 369.90 194.39 367.32 191.12 364.10 C 186.62 368.65 180.26 371.04 173.95 371.51 C 167.19 371.81 161.08 368.08 156.27 363.65 C 152.87 368.76 146.63 370.21 140.97 371.21 C 134.58 372.18 128.02 370.02 122.97 366.09 C 117.89 372.79 105.52 371.60 101.88 363.99 C 97.16 368.74 90.46 370.62 83.99 371.26 C 80.28 371.37 76.61 370.55 72.89 370.64 L 72.13 370.62 C 69.13 369.26 66.11 367.35 64.71 364.23 C 63.50 361.30 63.73 358.04 63.47 354.94 C 60.25 357.65 57.58 361.25 53.48 362.67 C 48.82 364.54 43.70 363.43 39.06 362.11 C 36.61 360.12 34.49 357.76 32.67 355.19 C 32.41 354.69 31.89 353.69 31.64 353.19 C 29.49 348.27 29.75 342.31 32.67 337.76 C 34.20 336.04 35.54 334.09 37.46 332.79 C 42.39 329.83 48.58 328.41 54.03 330.83 C 57.57 331.77 59.88 334.71 62.24 337.28 C 62.25 332.47 65.34 328.62 68.42 325.25 C 71.35 323.60 74.76 323.53 78.03 323.58 C 82.75 323.65 87.64 323.41 92.12 325.17 C 94.65 326.22 96.95 327.72 99.40 328.96 C 101.63 326.23 104.58 324.34 107.81 323.01 C 106.31 320.51 104.24 318.34 103.28 315.54 C 101.62 310.83 101.65 305.75 101.49 300.81 C 101.30 295.20 101.37 289.53 100.18 284.01 C 100.00 282.34 98.94 281.02 97.95 279.75 C 95.92 282.43 95.84 285.86 95.28 289.03 C 92.41 305.22 80.28 319.29 64.69 324.52 C 52.16 329.02 38.14 327.29 26.45 321.22 C 25.36 320.41 24.27 319.58 23.24 318.70 C 21.69 317.55 20.22 316.29 18.61 315.22 L 18.45 314.77 C 18.15 314.47 17.54 313.87 17.24 313.57 L 16.52 313.48 L 16.45 312.74 C 13.79 310.22 11.58 307.27 9.73 304.12 C 8.89 302.31 7.69 300.63 7.29 298.65 L 6.61 298.43 C 4.28 291.63 1.84 284.42 3.10 277.12 C 3.46 270.69 5.75 264.52 8.79 258.91 C 11.83 253.52 15.80 248.56 20.65 244.68 C 22.15 243.84 23.47 242.73 24.88 241.75 C 25.38 241.50 26.38 241.01 26.88 240.77 C 29.15 239.66 31.50 238.69 33.88 237.82 C 34.91 237.55 35.92 237.21 36.91 236.81 C 38.26 236.56 39.61 236.29 40.89 235.78 C 42.95 235.52 45.02 235.37 47.08 235.17 C 49.46 234.38 52.10 234.70 54.34 233.45 L 54.57 232.54 L 55.62 232.44 L 55.50 231.70 C 58.64 231.19 59.31 227.45 57.75 225.07 C 57.48 222.70 57.50 220.30 57.78 217.93 C 58.71 214.88 59.66 211.84 60.82 208.88 C 61.15 207.88 61.49 206.88 61.83 205.89 C 62.18 204.89 62.51 203.89 62.83 202.88 C 63.18 201.58 63.83 200.40 64.19 199.11 C 66.08 193.70 67.92 188.27 69.79 182.85 C 71.43 178.39 72.48 173.72 74.30 169.32 C 75.27 167.31 74.77 165.03 73.80 163.14 C 73.61 162.07 73.29 161.05 72.83 160.07 C 72.61 159.01 72.39 157.96 72.17 156.90 C 71.78 155.91 71.46 154.89 71.20 153.85 C 69.74 148.94 67.89 144.15 66.76 139.15 C 64.84 127.20 64.88 115.01 65.82 102.97 C 66.51 101.01 66.57 98.93 66.78 96.89 C 67.23 95.54 67.50 94.16 67.76 92.77 C 68.60 90.23 69.19 87.60 70.13 85.09 C 70.56 83.31 71.12 81.57 71.77 79.86 C 72.19 78.90 72.54 77.91 72.81 76.89 C 73.48 75.24 74.19 73.60 74.77 71.91 C 75.88 69.97 76.75 67.90 77.84 65.95 C 78.09 65.45 78.60 64.45 78.85 63.95 C 80.26 61.37 81.56 58.71 83.24 56.29 C 83.86 55.23 84.55 54.21 85.18 53.16 C 92.38 42.89 100.68 33.27 110.76 25.73 C 113.96 23.55 116.94 21.00 120.45 19.30 L 120.61 18.71 C 122.09 18.23 123.43 17.45 124.74 16.63 C 128.06 14.92 131.42 13.28 134.84 11.76 C 136.28 11.26 137.70 10.70 139.15 10.21 C 140.38 9.71 141.63 9.27 142.87 8.80 C 145.77 8.22 148.52 7.10 151.33 6.22 M 103.56 43.72 C 92.17 56.57 82.61 71.46 78.04 88.13 C 70.33 111.80 72.16 138.06 81.93 160.86 C 82.48 162.52 83.66 164.08 83.52 165.90 C 80.40 178.19 75.56 189.98 72.24 202.21 C 70.66 207.27 68.23 212.02 66.75 217.11 C 66.12 219.69 65.74 223.65 68.96 224.64 C 76.03 225.58 81.77 220.58 88.05 218.25 C 98.22 213.00 109.05 209.06 118.97 203.34 C 131.23 212.73 146.19 217.97 161.14 221.22 C 175.70 222.77 190.82 223.62 205.04 219.47 C 217.04 217.23 228.92 212.22 237.81 203.69 C 239.02 203.18 240.23 202.67 241.44 202.15 C 241.68 204.47 242.14 206.77 242.70 209.03 C 230.31 217.49 216.96 225.59 208.31 238.20 C 205.41 242.21 203.50 246.85 200.36 250.69 L 200.70 251.64 L 200.07 250.85 C 197.20 253.75 199.28 257.45 201.75 259.74 C 203.22 259.64 204.69 259.54 206.16 259.45 C 207.04 257.93 208.41 256.55 208.50 254.70 C 208.67 254.59 209.01 254.37 209.18 254.26 C 211.13 247.40 216.28 242.05 221.51 237.44 C 229.55 229.43 239.34 223.48 248.77 217.34 C 252.91 217.73 257.09 217.40 260.94 215.72 C 262.44 226.84 278.68 230.95 286.05 223.02 C 289.74 219.63 290.75 214.44 290.62 209.63 C 296.97 211.08 302.22 206.01 304.74 200.74 C 307.04 195.95 306.98 190.11 304.33 185.47 C 301.81 179.84 295.17 177.37 289.34 177.65 C 289.18 175.36 288.75 173.11 288.27 170.88 C 286.65 165.73 282.48 161.94 277.47 160.16 C 277.54 159.38 277.62 158.61 277.71 157.83 C 278.47 156.21 279.24 154.58 279.89 152.91 C 284.02 138.71 286.95 123.83 285.19 108.99 C 283.61 97.08 281.04 85.13 275.76 74.26 C 271.04 62.83 263.74 52.62 255.48 43.48 C 236.03 23.82 208.95 11.10 181.04 11.44 C 152.22 10.77 123.44 22.89 103.56 43.72 M 95.65 223.65 C 88.86 227.06 82.19 230.97 74.78 232.91 C 71.89 234.27 68.95 235.53 65.94 236.59 C 67.85 237.89 69.84 239.06 71.85 240.18 C 75.01 242.26 77.71 245.11 81.28 246.49 L 80.77 245.33 C 84.56 241.28 89.24 237.49 94.98 236.97 C 102.20 236.18 109.49 237.15 116.73 236.59 C 126.34 237.01 136.02 236.17 145.58 237.56 C 148.87 238.40 151.84 240.39 154.19 242.82 C 156.13 244.75 156.69 247.64 158.73 249.49 C 160.11 246.20 162.26 243.36 164.54 240.64 C 169.49 237.68 175.19 235.41 181.07 236.53 C 186.51 237.09 190.37 241.28 194.04 244.89 C 195.25 243.84 196.39 242.72 197.44 241.51 C 199.67 236.25 203.41 231.89 206.93 227.46 C 194.07 231.48 180.40 231.02 167.11 230.25 C 156.58 228.91 146.22 226.32 136.38 222.35 C 129.70 219.55 122.80 216.97 116.98 212.55 C 110.25 216.95 102.56 219.56 95.65 223.65 M 240.48 235.62 C 239.45 236.32 239.37 237.58 239.11 238.67 C 242.81 241.08 245.07 244.94 246.48 249.03 C 252.39 242.48 259.10 235.80 268.16 234.17 C 263.16 232.31 258.73 229.35 255.24 225.30 C 249.43 227.37 245.02 231.66 240.48 235.62 M 38.63 244.86 C 20.86 249.58 8.38 269.01 11.60 287.14 C 15.05 307.74 37.54 322.99 57.92 317.58 C 77.78 313.09 90.62 290.58 85.58 271.08 C 82.54 260.68 75.47 251.13 65.25 246.93 C 57.06 242.71 47.42 242.92 38.63 244.86 M 173.83 244.75 C 167.92 247.70 166.84 254.71 164.21 260.11 C 157.53 276.01 150.97 291.96 143.96 307.72 C 141.58 313.28 147.34 319.83 153.12 318.73 C 157.54 318.40 161.00 314.74 162.35 310.72 C 163.38 311.40 164.41 312.10 165.45 312.79 C 167.31 310.32 169.79 308.45 171.92 306.23 C 169.52 305.71 167.13 305.20 164.77 304.58 C 173.57 303.95 182.41 304.35 191.21 303.76 C 193.54 305.72 193.64 309.17 195.36 311.61 C 197.55 316.19 202.55 319.98 207.84 318.37 C 207.66 319.05 207.31 320.40 207.14 321.08 C 212.18 320.59 218.36 320.64 221.14 315.56 C 223.64 318.12 227.35 318.93 230.82 318.51 C 234.61 320.31 238.79 318.24 241.75 315.79 C 245.12 312.72 243.70 307.74 243.75 303.75 C 244.47 301.18 243.69 297.92 246.06 296.08 C 251.94 301.92 256.67 308.74 261.95 315.08 C 264.36 318.16 268.53 319.59 272.31 318.44 C 272.73 318.91 273.55 319.85 273.97 320.33 C 278.32 320.55 283.94 317.89 284.40 313.05 C 283.06 310.85 279.96 310.22 278.34 308.08 C 271.49 299.85 265.31 291.08 258.29 282.99 C 260.38 280.34 264.29 279.93 265.85 276.70 L 266.20 276.74 C 268.94 273.64 271.20 270.12 274.21 267.24 C 276.31 264.99 278.91 262.95 279.98 259.96 C 279.07 257.98 276.78 257.18 275.10 255.97 C 279.56 252.46 275.94 246.10 271.64 244.49 C 268.25 244.01 264.10 243.70 261.56 246.47 C 255.22 252.75 249.44 259.58 243.17 265.94 C 242.92 261.70 243.28 257.41 242.77 253.20 C 240.99 251.49 238.39 251.11 236.15 250.26 C 234.84 247.40 232.29 244.71 229.01 244.43 C 223.25 243.54 217.52 249.29 218.23 255.03 C 218.36 268.35 218.21 281.68 218.34 295.00 C 218.38 300.52 217.91 306.08 218.77 311.55 C 217.67 311.24 216.58 310.90 215.49 310.56 C 214.73 311.50 214.00 312.47 213.23 313.40 C 213.48 311.64 213.69 309.73 212.83 308.10 C 209.01 300.50 206.41 292.35 202.44 284.82 C 198.51 275.35 194.07 266.10 190.28 256.57 C 188.63 252.83 187.03 248.76 183.71 246.19 C 180.98 243.91 177.10 244.09 173.83 244.75 M 93.87 245.73 C 89.61 247.06 86.87 251.69 87.73 256.08 C 88.81 259.43 91.05 262.92 94.95 263.14 C 100.10 263.09 105.26 262.56 110.42 262.69 C 110.38 279.17 109.90 295.68 110.61 312.15 C 112.55 316.44 117.30 319.64 122.10 318.34 C 121.90 319.14 121.71 319.95 121.51 320.76 C 124.99 321.44 128.92 323.70 132.22 321.25 C 136.13 319.54 136.62 314.73 136.45 311.00 C 136.07 297.36 136.83 283.67 135.80 270.06 C 136.17 269.64 136.92 268.80 137.30 268.38 C 142.10 268.07 147.02 267.24 151.22 264.76 C 152.56 263.49 153.81 262.12 154.98 260.68 C 155.36 259.30 155.88 257.88 155.61 256.43 C 154.43 255.30 152.73 255.02 151.30 254.38 C 150.57 253.35 149.85 252.32 149.13 251.29 C 147.68 247.70 144.06 244.70 140.01 245.17 C 124.64 245.76 109.24 245.21 93.87 245.73 M 244.56 314.67 C 243.53 317.56 241.63 320.17 241.33 323.29 C 247.35 322.99 253.43 324.71 258.12 328.57 C 259.35 327.92 260.58 327.28 261.76 326.54 C 261.38 325.25 259.93 324.79 259.02 323.96 C 254.42 320.86 251.53 315.97 247.48 312.30 C 245.67 311.21 245.11 313.41 244.56 314.67 M 165.13 323.16 C 162.31 324.89 159.58 327.24 156.21 327.72 C 156.72 327.88 157.21 328.07 157.70 328.28 C 162.52 323.77 169.58 323.15 175.87 323.41 C 180.25 323.48 184.28 325.71 187.09 329.00 C 188.96 326.66 191.05 324.40 194.02 323.53 C 190.88 320.18 188.33 316.40 186.07 312.41 C 181.28 312.43 176.48 312.75 171.69 312.41 C 169.42 315.93 167.97 320.02 165.13 323.16 M 194.72 331.35 L 195.61 331.50 C 194.18 336.54 195.15 341.81 194.69 346.96 C 193.74 353.81 197.78 361.77 204.90 363.34 C 212.24 364.38 220.32 359.74 221.51 352.15 C 221.47 345.32 221.76 338.48 221.42 331.67 C 218.81 331.87 216.22 332.22 213.61 332.37 L 213.66 331.31 C 208.45 329.22 202.04 331.98 197.38 328.47 C 196.48 329.41 195.59 330.38 194.72 331.35 M 109.67 331.76 C 108.56 336.75 108.79 341.89 108.72 346.97 C 108.76 352.14 108.32 357.39 109.47 362.49 C 112.03 363.49 114.75 363.31 117.26 362.25 C 117.30 361.57 117.38 360.21 117.42 359.53 C 119.45 359.33 121.63 359.25 123.17 360.84 C 124.45 360.24 125.60 359.44 126.63 358.49 C 130.10 361.55 134.57 363.40 139.22 363.42 C 143.51 362.95 147.88 360.94 150.35 357.28 C 151.80 355.19 152.05 352.23 150.79 350.01 C 148.07 344.15 140.36 344.19 135.21 341.52 C 135.38 340.53 135.57 339.55 135.75 338.57 C 139.39 338.01 142.77 339.37 145.90 341.06 C 147.53 339.35 149.35 337.80 150.85 335.96 C 146.97 333.60 142.87 330.58 138.06 331.26 C 133.24 331.24 128.59 334.06 126.61 338.49 C 125.61 336.83 124.53 335.23 123.31 333.73 C 121.30 333.67 119.35 333.16 117.48 332.46 C 114.98 331.49 112.29 331.73 109.67 331.76 M 230.63 341.02 C 231.18 342.74 231.49 344.67 232.83 346.01 C 236.41 350.17 242.42 350.13 247.07 352.49 C 246.27 354.01 245.08 355.84 243.05 355.43 C 239.82 355.00 237.03 353.13 234.06 351.89 C 232.54 353.55 230.98 355.19 229.49 356.88 C 231.58 359.11 233.94 361.11 236.79 362.30 C 238.19 362.53 239.57 362.84 240.94 363.25 C 245.77 363.61 251.11 361.97 253.69 357.60 C 256.38 354.06 255.64 347.91 251.16 346.22 L 251.25 345.91 C 247.31 344.41 243.30 343.11 239.45 341.41 C 239.44 340.96 239.41 340.07 239.40 339.62 C 242.96 337.40 246.53 339.74 249.84 341.13 C 251.12 339.38 253.59 338.21 253.96 335.99 C 250.95 332.86 246.28 331.18 241.95 331.39 C 236.53 331.46 231.44 335.58 230.63 341.02 M 72.46 332.38 C 72.27 333.59 72.04 334.79 71.78 336.00 C 72.96 345.02 71.79 354.25 72.71 363.33 C 79.02 363.31 85.60 363.84 91.60 361.49 C 100.10 357.27 102.96 344.70 96.60 337.47 C 90.78 330.48 80.57 331.32 72.46 332.38 M 159.70 340.74 C 159.42 341.83 159.11 342.91 158.78 344.00 C 156.83 352.68 162.97 362.19 171.94 363.26 C 173.29 363.25 174.64 363.24 176.00 363.23 C 180.76 362.59 184.76 359.72 187.74 356.07 C 185.79 354.51 183.85 352.94 181.88 351.41 C 179.54 353.66 176.47 355.45 173.11 354.43 C 167.15 353.39 165.10 344.28 170.18 340.96 C 173.88 338.03 179.04 339.71 181.90 343.00 C 183.51 341.26 185.20 339.61 186.89 337.97 C 183.96 334.86 180.20 332.48 175.99 331.63 C 169.30 330.57 162.49 334.67 159.70 340.74 M 264.20 344.01 C 266.49 350.14 274.07 349.56 279.05 352.01 C 280.38 353.50 278.60 354.95 277.26 355.38 C 273.50 355.76 270.19 353.68 267.04 352.00 C 265.23 353.25 261.85 355.64 263.74 358.08 C 268.86 364.23 279.79 365.48 285.36 359.31 C 288.00 356.70 288.32 352.49 287.17 349.13 C 283.74 344.17 277.15 343.91 272.06 341.64 C 272.25 340.43 272.20 338.71 273.86 338.59 C 277.21 338.07 280.22 339.90 283.05 341.43 C 284.54 339.60 286.08 337.80 287.64 336.02 C 283.15 332.59 277.63 330.42 271.93 331.67 C 266.57 332.75 261.92 338.57 264.20 344.01 M 305.78 349.66 C 307.36 354.51 312.66 356.74 317.43 355.32 L 317.55 354.85 C 322.69 352.77 324.49 345.45 320.61 341.42 C 319.07 339.19 316.45 338.39 313.97 337.75 C 308.31 338.40 304.56 344.16 305.78 349.66 M 38.93 346.91 C 39.62 349.61 40.51 352.58 43.25 353.91 C 43.28 354.06 43.35 354.36 43.38 354.52 C 46.59 355.88 51.08 356.65 53.57 353.58 C 57.60 350.34 57.65 343.04 53.25 340.26 C 52.09 339.04 50.62 338.24 49.12 337.54 C 43.53 336.77 39.27 341.67 38.93 346.91 Z" />
</g>
<g id="#0d1b1fff">
<path fill="#0d1b1f" opacity="1.00" d=" M 103.56 43.72 C 123.44 22.89 152.22 10.77 181.04 11.44 C 208.95 11.10 236.03 23.82 255.48 43.48 C 263.74 52.62 271.04 62.83 275.76 74.26 C 281.04 85.13 283.61 97.08 285.19 108.99 C 286.95 123.83 284.02 138.71 279.89 152.91 C 279.24 154.58 278.47 156.21 277.71 157.83 C 277.62 158.61 277.54 159.38 277.47 160.16 C 282.48 161.94 286.65 165.73 288.27 170.88 C 288.75 173.11 289.18 175.36 289.34 177.65 C 295.17 177.37 301.81 179.84 304.33 185.47 C 306.98 190.11 307.04 195.95 304.74 200.74 C 302.22 206.01 296.97 211.08 290.62 209.63 C 290.75 214.44 289.74 219.63 286.05 223.02 C 278.68 230.95 262.44 226.84 260.94 215.72 C 260.66 215.51 260.09 215.08 259.80 214.87 C 260.36 210.73 260.72 206.57 260.60 202.39 L 260.96 201.55 C 261.19 201.40 261.65 201.09 261.88 200.94 C 264.20 204.80 264.99 209.20 265.26 213.63 C 265.36 217.18 268.24 219.47 270.59 221.72 C 271.13 220.73 271.68 219.75 272.22 218.77 C 275.53 220.13 279.16 219.11 281.41 216.41 C 282.27 216.40 284.08 217.30 284.31 215.90 C 285.08 212.33 286.13 207.73 283.26 204.85 C 281.98 203.40 280.82 201.85 279.80 200.21 C 282.07 200.90 284.39 201.51 286.79 201.56 C 291.12 202.20 297.19 201.09 298.20 196.03 C 299.90 190.10 294.34 184.56 288.57 184.61 C 287.91 184.43 286.61 184.08 285.96 183.90 C 283.76 184.96 281.66 186.21 279.63 187.58 C 279.23 187.12 278.42 186.21 278.01 185.75 C 279.20 182.45 282.17 179.64 281.76 175.92 C 281.58 170.88 276.01 166.17 271.02 167.95 C 266.97 169.62 263.92 173.75 264.54 178.26 C 264.35 180.44 264.34 182.66 264.77 184.82 C 262.90 184.24 261.05 183.60 259.14 183.20 C 258.55 182.83 257.96 182.45 257.38 182.07 C 252.90 180.56 247.48 183.44 246.24 187.99 C 245.51 190.81 247.00 193.57 248.84 195.61 C 247.09 198.57 245.36 201.54 243.74 204.57 C 242.85 203.58 242.27 202.20 241.00 201.65 C 239.65 201.74 238.81 202.94 237.81 203.69 C 228.92 212.22 217.04 217.23 205.04 219.47 C 190.82 223.62 175.70 222.77 161.14 221.22 C 146.19 217.97 131.23 212.73 118.97 203.34 C 109.05 209.06 98.22 213.00 88.05 218.25 C 81.77 220.58 76.03 225.58 68.96 224.64 C 65.74 223.65 66.12 219.69 66.75 217.11 C 68.23 212.02 70.66 207.27 72.24 202.21 C 75.56 189.98 80.40 178.19 83.52 165.90 C 83.66 164.08 82.48 162.52 81.93 160.86 C 72.16 138.06 70.33 111.80 78.04 88.13 C 82.61 71.46 92.17 56.57 103.56 43.72 M 161.48 31.79 C 148.47 34.45 135.71 39.85 125.70 48.76 C 117.36 55.80 109.79 63.92 104.50 73.53 C 99.71 82.92 94.89 92.55 93.42 103.13 C 91.29 112.27 90.95 121.80 92.17 131.10 C 93.98 140.39 95.96 149.71 99.91 158.38 L 100.36 158.49 C 101.32 161.15 101.34 163.97 100.36 166.62 C 97.38 175.51 95.91 184.85 92.36 193.54 L 92.10 193.61 C 90.99 195.92 89.94 198.26 89.18 200.71 C 94.09 199.61 98.64 197.15 103.03 194.83 C 110.06 192.21 116.08 187.57 122.91 184.53 C 130.21 189.07 136.97 194.65 145.15 197.63 C 147.92 198.91 150.79 199.94 153.73 200.73 C 166.73 205.13 180.83 205.06 194.32 203.40 C 203.49 202.21 212.26 198.84 220.57 194.85 C 227.87 190.67 236.30 187.33 241.16 180.09 C 244.28 175.64 249.83 173.27 255.21 174.18 C 255.82 174.30 257.03 174.54 257.64 174.66 L 257.59 173.23 C 257.66 172.96 257.78 172.40 257.84 172.13 C 258.90 169.47 260.26 166.83 260.57 163.96 C 260.17 161.55 259.26 159.20 259.66 156.71 C 262.61 149.54 264.10 141.82 264.92 134.13 C 267.46 120.37 266.04 106.00 262.32 92.55 L 261.76 92.52 C 260.17 86.37 257.43 80.58 254.80 74.82 C 242.52 51.97 219.40 34.70 193.48 31.33 C 182.98 28.82 171.97 29.59 161.48 31.79 Z" />
</g>
<g id="#cbcbc6ff">
<path fill="#cbcbc6" opacity="1.00" d=" M 161.48 31.79 C 171.97 29.59 182.98 28.82 193.48 31.33 C 183.94 34.19 174.02 35.40 164.27 37.39 C 164.92 36.13 165.44 34.81 165.88 33.46 C 164.42 32.90 162.96 32.32 161.48 31.79 Z" />
</g>
<g id="#fdf5e8ff">
<path fill="#fdf5e8" opacity="1.00" d=" M 193.48 31.33 C 219.40 34.70 242.52 51.97 254.80 74.82 C 257.43 80.58 260.17 86.37 261.76 92.52 C 261.08 92.48 259.72 92.40 259.04 92.37 C 258.07 99.22 258.86 106.14 258.71 113.03 C 258.64 117.22 258.02 121.38 257.86 125.57 C 256.41 131.85 255.23 138.20 253.51 144.40 C 251.48 149.03 249.54 153.84 246.47 157.89 C 244.13 156.55 241.50 155.34 240.11 152.89 C 238.61 145.79 229.41 141.59 223.59 146.54 C 220.20 149.30 220.20 154.05 220.80 158.01 C 222.79 163.41 228.61 165.77 234.00 165.84 C 235.93 165.61 236.13 167.56 236.71 168.90 C 233.29 171.58 230.47 174.90 227.41 177.96 C 219.42 184.55 209.74 188.50 200.16 192.14 C 192.42 194.55 184.36 195.65 176.29 196.04 C 169.64 195.76 162.91 196.19 156.34 194.96 C 153.50 194.01 150.52 193.65 147.57 194.33 C 146.80 195.46 146.03 196.58 145.15 197.63 C 136.97 194.65 130.21 189.07 122.91 184.53 C 116.08 187.57 110.06 192.21 103.03 194.83 C 102.14 195.01 100.36 195.36 99.47 195.53 C 99.72 194.68 100.20 192.99 100.45 192.14 C 102.79 184.81 104.66 177.33 106.73 169.91 C 107.89 166.14 106.67 162.29 105.28 158.77 C 101.13 147.59 98.43 135.88 97.66 123.97 C 97.72 106.02 103.04 87.99 113.23 73.17 C 119.39 65.74 125.37 57.99 133.14 52.13 C 142.52 45.40 152.92 39.89 164.27 37.39 C 174.02 35.40 183.94 34.19 193.48 31.33 M 151.90 65.98 C 151.26 69.78 151.85 73.66 151.80 77.50 C 142.19 77.38 132.57 77.58 122.96 77.46 C 120.90 77.54 118.43 77.11 116.96 78.93 C 112.46 82.61 115.70 90.39 120.93 91.25 C 122.93 93.36 124.57 96.86 128.00 96.46 C 135.94 96.39 143.83 95.10 151.71 94.15 C 151.72 96.29 151.73 98.44 151.73 100.58 C 141.49 100.49 131.25 100.61 121.01 100.71 C 115.95 100.24 111.68 106.31 114.04 110.88 C 115.12 113.31 117.67 114.37 119.98 115.27 C 121.52 117.09 122.88 120.03 125.71 119.67 C 134.33 119.30 142.99 119.65 151.57 118.64 C 151.61 119.96 151.62 121.29 151.64 122.62 C 141.44 122.74 131.23 122.59 121.02 122.51 C 119.36 122.59 117.52 122.31 116.10 123.40 C 111.34 126.25 113.03 134.51 118.02 136.17 C 119.04 138.06 119.79 140.52 122.02 141.32 C 126.32 141.69 130.63 141.29 134.93 141.21 C 130.70 145.70 125.65 149.30 121.11 153.46 C 119.32 155.18 115.86 156.65 116.44 159.59 C 118.80 162.92 121.43 166.07 123.67 169.50 C 124.59 169.23 125.66 169.17 126.40 168.48 C 127.42 170.88 129.21 172.79 130.97 174.67 C 132.38 173.90 133.73 173.00 134.80 171.78 C 138.29 167.99 142.14 164.55 145.65 160.77 C 147.73 158.66 149.50 156.09 152.32 154.89 C 152.41 160.24 151.94 165.63 152.58 170.96 C 153.69 173.61 156.76 174.43 159.16 175.50 C 160.74 177.80 162.76 180.90 166.01 180.34 C 169.71 179.87 171.49 175.84 172.39 172.65 C 173.29 166.48 172.22 160.22 172.65 154.03 C 172.95 153.61 173.56 152.79 173.87 152.38 C 178.62 157.57 184.14 161.98 189.19 166.87 C 190.75 168.00 192.38 170.28 194.55 169.54 C 196.35 171.69 198.62 175.28 201.94 173.85 C 205.15 171.50 208.38 168.55 209.69 164.69 C 210.00 161.45 205.73 161.35 203.59 160.31 C 203.10 159.55 202.61 158.78 202.13 158.01 C 201.64 157.19 201.05 156.46 200.34 155.83 C 194.61 151.29 189.00 146.59 183.41 141.87 C 183.81 141.65 184.62 141.22 185.03 141.00 C 191.00 141.48 196.98 141.11 202.96 141.24 C 207.79 141.68 211.48 136.26 210.35 131.84 C 208.91 129.72 206.00 129.42 203.95 128.04 C 203.83 125.63 202.03 123.92 200.34 122.45 C 195.99 121.03 191.45 122.35 187.01 122.32 C 182.09 122.31 177.16 122.53 172.25 122.13 C 172.57 120.76 172.91 119.40 173.04 118.00 C 181.51 118.84 190.05 119.31 198.57 119.17 C 201.42 119.55 204.38 119.93 207.21 119.23 C 210.24 117.43 212.91 113.97 212.62 110.31 C 211.24 106.95 207.02 106.66 204.10 105.30 C 202.79 102.81 200.42 100.32 197.38 100.49 C 189.19 100.23 180.99 100.35 172.80 100.49 C 173.22 98.65 172.70 96.33 173.93 94.80 C 182.38 95.23 190.85 94.56 199.28 95.50 C 202.18 95.28 205.71 95.21 207.58 92.60 C 209.11 90.10 209.98 86.91 209.25 84.01 C 208.06 82.55 206.15 82.38 204.44 82.10 C 204.05 83.12 203.65 84.13 203.22 85.14 C 205.15 80.98 201.38 76.37 197.01 76.77 C 188.70 77.25 180.38 77.45 172.05 77.24 C 172.28 74.08 172.39 70.92 172.47 67.76 C 170.34 66.65 167.97 66.21 165.59 65.99 C 163.19 60.62 154.14 60.37 151.90 65.98 M 218.46 87.40 C 220.79 92.38 226.29 96.91 232.08 95.14 C 231.22 95.66 230.44 96.28 229.73 96.99 C 232.47 99.33 236.28 101.70 239.91 99.79 C 245.55 96.63 250.19 90.11 248.46 83.40 C 246.69 81.22 244.10 79.90 241.48 79.04 C 239.87 74.76 236.41 71.24 232.06 69.74 C 222.76 67.31 214.29 79.07 218.46 87.40 M 217.84 115.95 C 216.76 123.56 223.16 130.87 230.65 131.51 C 231.97 134.80 235.28 137.58 238.99 136.23 C 245.28 133.71 250.72 127.04 248.99 119.92 C 248.36 116.55 244.29 116.22 241.74 114.96 C 240.31 109.47 234.78 104.82 228.92 105.58 C 223.46 106.07 219.03 110.76 217.84 115.95 Z" />
</g>
<g id="#babdbdff">
<path fill="#babdbd" opacity="1.00" d=" M 125.70 48.76 C 135.71 39.85 148.47 34.45 161.48 31.79 C 162.96 32.32 164.42 32.90 165.88 33.46 C 165.44 34.81 164.92 36.13 164.27 37.39 C 152.92 39.89 142.52 45.40 133.14 52.13 C 125.37 57.99 119.39 65.74 113.23 73.17 C 103.04 87.99 97.72 106.02 97.66 123.97 C 98.43 135.88 101.13 147.59 105.28 158.77 C 105.18 159.25 104.99 160.20 104.89 160.67 C 103.49 159.75 102.04 158.82 100.36 158.49 L 99.91 158.38 C 95.96 149.71 93.98 140.39 92.17 131.10 C 90.95 121.80 91.29 112.27 93.42 103.13 C 94.89 92.55 99.71 82.92 104.50 73.53 C 109.79 63.92 117.36 55.80 125.70 48.76 Z" />
</g>
<g id="#63767dff">
<path fill="#63767d" opacity="1.00" d=" M 268.02 45.03 C 274.11 50.20 279.58 56.07 285.15 61.80 C 300.43 77.71 313.00 97.19 317.44 119.05 C 316.37 121.21 314.57 122.88 313.31 124.91 C 313.42 126.65 313.87 128.35 314.22 130.05 C 314.77 129.03 315.33 128.02 315.90 127.01 C 315.75 128.93 314.77 130.70 314.43 132.53 C 315.08 132.54 316.38 132.55 317.03 132.56 C 315.55 134.34 313.93 136.19 313.49 138.55 C 311.86 147.34 310.36 156.23 310.46 165.20 C 311.42 166.38 312.88 167.03 314.11 167.90 C 314.33 166.78 314.58 165.66 314.82 164.54 C 315.76 164.13 316.71 163.75 317.67 163.38 C 317.84 164.30 318.07 165.21 318.37 166.10 C 317.65 169.99 316.91 174.00 315.41 177.67 C 314.33 179.46 313.29 181.28 312.32 183.14 C 309.06 177.39 303.99 171.62 296.93 171.18 C 295.49 165.35 292.00 160.24 287.08 156.79 C 290.46 147.33 293.14 137.50 293.56 127.41 C 295.93 104.96 290.34 82.07 279.72 62.28 C 276.35 56.19 271.96 50.75 268.02 45.03 Z" />
</g>
<g id="#0d191fff">
<path fill="#0d191f" opacity="1.00" d=" M 151.90 65.98 C 154.14 60.37 163.19 60.62 165.59 65.99 C 165.81 69.76 165.65 73.53 165.56 77.30 C 167.72 77.27 169.89 77.24 172.05 77.24 C 180.38 77.45 188.70 77.25 197.01 76.77 C 201.38 76.37 205.15 80.98 203.22 85.14 C 202.48 87.26 200.89 88.90 199.11 90.20 C 188.20 91.18 177.21 90.35 166.27 90.66 C 166.19 93.98 166.18 97.29 166.22 100.61 C 168.41 100.57 170.60 100.54 172.80 100.49 C 180.99 100.35 189.19 100.23 197.38 100.49 C 200.42 100.32 202.79 102.81 204.10 105.30 C 204.74 108.93 202.57 112.03 200.24 114.53 C 191.25 114.72 182.25 114.78 173.25 114.72 C 170.74 114.67 168.23 114.94 165.76 115.39 C 165.78 117.80 165.77 120.21 165.73 122.62 C 177.26 123.06 188.80 122.63 200.34 122.45 C 202.03 123.92 203.83 125.63 203.95 128.04 C 204.24 131.28 202.66 135.57 198.87 135.66 C 191.92 135.77 184.98 135.45 178.03 135.74 C 179.51 138.04 181.29 140.14 183.41 141.87 C 189.00 146.59 194.61 151.29 200.34 155.83 C 201.05 156.46 201.64 157.19 202.13 158.01 C 202.20 158.76 202.33 160.26 202.39 161.00 C 200.41 164.35 197.55 167.10 194.55 169.54 C 192.38 170.28 190.75 168.00 189.19 166.87 C 184.14 161.98 178.62 157.57 173.87 152.38 C 171.40 149.66 168.96 146.92 166.62 144.09 C 165.39 146.54 165.82 149.33 165.75 151.97 C 165.73 157.33 165.77 162.69 165.60 168.05 C 165.66 171.75 162.26 174.23 159.16 175.50 C 156.76 174.43 153.69 173.61 152.58 170.96 C 151.94 165.63 152.41 160.24 152.32 154.89 C 152.34 151.10 152.35 147.32 152.22 143.54 C 147.20 148.42 142.95 154.04 137.65 158.63 C 133.98 162.01 129.92 164.94 126.40 168.48 C 125.66 169.17 124.59 169.23 123.67 169.50 C 121.43 166.07 118.80 162.92 116.44 159.59 C 115.86 156.65 119.32 155.18 121.11 153.46 C 125.65 149.30 130.70 145.70 134.93 141.21 C 136.52 139.50 137.98 137.69 139.36 135.81 C 132.25 135.34 125.11 135.38 118.02 136.17 C 113.03 134.51 111.34 126.25 116.10 123.40 C 117.52 122.31 119.36 122.59 121.02 122.51 C 131.23 122.59 141.44 122.74 151.64 122.62 C 151.62 121.29 151.61 119.96 151.57 118.64 C 151.53 117.33 151.48 116.03 151.43 114.73 C 140.95 115.96 130.45 113.96 119.98 115.27 C 117.67 114.37 115.12 113.31 114.04 110.88 C 111.68 106.31 115.95 100.24 121.01 100.71 C 131.25 100.61 141.49 100.49 151.73 100.58 C 151.73 98.44 151.72 96.29 151.71 94.15 C 151.70 93.27 151.69 91.51 151.68 90.63 C 141.43 90.89 131.16 90.53 120.93 91.25 C 115.70 90.39 112.46 82.61 116.96 78.93 C 118.43 77.11 120.90 77.54 122.96 77.46 C 132.57 77.58 142.19 77.38 151.80 77.50 C 151.85 73.66 151.26 69.78 151.90 65.98 Z" />
</g>
<g id="#bfc8c5ff">
<path fill="#bfc8c5" opacity="1.00" d=" M 165.59 65.99 C 167.97 66.21 170.34 66.65 172.47 67.76 C 172.39 70.92 172.28 74.08 172.05 77.24 C 169.89 77.24 167.72 77.27 165.56 77.30 C 165.65 73.53 165.81 69.76 165.59 65.99 Z" />
</g>
<g id="#0b141dff">
<path fill="#0b141d" opacity="1.00" d=" M 218.46 87.40 C 214.29 79.07 222.76 67.31 232.06 69.74 C 236.41 71.24 239.87 74.76 241.48 79.04 C 242.98 85.94 238.85 93.12 232.08 95.14 C 226.29 96.91 220.79 92.38 218.46 87.40 M 224.49 84.30 C 226.17 85.39 227.70 87.44 229.96 86.89 C 234.71 86.50 235.24 78.56 230.68 77.40 C 226.67 76.09 223.18 80.55 224.49 84.30 Z" />
</g>
<g id="#f85f72ff">
<path fill="#f85f72" opacity="1.00" d=" M 224.49 84.30 C 223.18 80.55 226.67 76.09 230.68 77.40 C 235.24 78.56 234.71 86.50 229.96 86.89 C 227.70 87.44 226.17 85.39 224.49 84.30 Z" />
</g>
<g id="#b9c0c0ff">
<path fill="#b9c0c0" opacity="1.00" d=" M 241.48 79.04 C 244.10 79.90 246.69 81.22 248.46 83.40 C 250.19 90.11 245.55 96.63 239.91 99.79 C 236.28 101.70 232.47 99.33 229.73 96.99 C 230.44 96.28 231.22 95.66 232.08 95.14 C 238.85 93.12 242.98 85.94 241.48 79.04 Z" />
</g>
<g id="#b2b7b8ff">
<path fill="#b2b7b8" opacity="1.00" d=" M 204.44 82.10 C 206.15 82.38 208.06 82.55 209.25 84.01 C 209.98 86.91 209.11 90.10 207.58 92.60 C 205.71 95.21 202.18 95.28 199.28 95.50 C 199.57 93.73 199.54 91.94 199.11 90.20 C 200.89 88.90 202.48 87.26 203.22 85.14 C 203.65 84.13 204.05 83.12 204.44 82.10 Z" />
</g>
<g id="#c0c4c4ff">
<path fill="#c0c4c4" opacity="1.00" d=" M 120.93 91.25 C 131.16 90.53 141.43 90.89 151.68 90.63 C 151.69 91.51 151.70 93.27 151.71 94.15 C 143.83 95.10 135.94 96.39 128.00 96.46 C 124.57 96.86 122.93 93.36 120.93 91.25 Z" />
</g>
<g id="#bdc2c6ff">
<path fill="#bdc2c6" opacity="1.00" d=" M 166.27 90.66 C 177.21 90.35 188.20 91.18 199.11 90.20 C 199.54 91.94 199.57 93.73 199.28 95.50 C 190.85 94.56 182.38 95.23 173.93 94.80 C 172.70 96.33 173.22 98.65 172.80 100.49 C 170.60 100.54 168.41 100.57 166.22 100.61 C 166.18 97.29 166.19 93.98 166.27 90.66 Z" />
</g>
<g id="#b7bcbbff">
<path fill="#b7bcbb" opacity="1.00" d=" M 259.04 92.37 C 259.72 92.40 261.08 92.48 261.76 92.52 L 262.32 92.55 C 266.04 106.00 267.46 120.37 264.92 134.13 C 264.89 131.82 264.81 129.51 264.75 127.20 C 262.98 128.36 261.23 129.54 259.48 130.73 C 258.93 129.01 258.36 127.30 257.86 125.57 C 258.02 121.38 258.64 117.22 258.71 113.03 C 258.86 106.14 258.07 99.22 259.04 92.37 Z" />
<path fill="#b7bcbb" opacity="1.00" d=" M 167.72 375.26 C 168.99 376.27 170.25 377.32 171.41 378.48 C 169.59 378.46 167.77 378.46 165.95 378.49 C 165.29 379.29 164.62 380.09 163.96 380.89 C 165.22 379.02 166.47 377.13 167.72 375.26 Z" />
</g>
<g id="#b4b9bbff">
<path fill="#b4b9bb" opacity="1.00" d=" M 204.10 105.30 C 207.02 106.66 211.24 106.95 212.62 110.31 C 212.91 113.97 210.24 117.43 207.21 119.23 C 204.38 119.93 201.42 119.55 198.57 119.17 C 199.08 117.61 199.58 116.04 200.24 114.53 C 202.57 112.03 204.74 108.93 204.10 105.30 Z" />
</g>
<g id="#0b1822ff">
<path fill="#0b1822" opacity="1.00" d=" M 217.84 115.95 C 219.03 110.76 223.46 106.07 228.92 105.58 C 234.78 104.82 240.31 109.47 241.74 114.96 C 241.87 118.30 241.93 121.92 240.05 124.84 C 238.10 128.36 234.33 130.28 230.65 131.51 C 223.16 130.87 216.76 123.56 217.84 115.95 M 227.27 113.37 C 224.50 115.94 224.64 120.26 227.59 122.63 C 229.15 122.59 230.81 122.94 232.30 122.30 C 234.20 120.32 234.00 117.19 233.39 114.72 C 232.10 112.58 229.31 113.46 227.27 113.37 Z" />
</g>
<g id="#f85f70ff">
<path fill="#f85f70" opacity="1.00" d=" M 227.27 113.37 C 229.31 113.46 232.10 112.58 233.39 114.72 C 234.00 117.19 234.20 120.32 232.30 122.30 C 230.81 122.94 229.15 122.59 227.59 122.63 C 224.64 120.26 224.50 115.94 227.27 113.37 Z" />
</g>
<g id="#c6c4c4ff">
<path fill="#c6c4c4" opacity="1.00" d=" M 173.25 114.72 C 182.25 114.78 191.25 114.72 200.24 114.53 C 199.58 116.04 199.08 117.61 198.57 119.17 C 190.05 119.31 181.51 118.84 173.04 118.00 C 173.10 117.18 173.20 115.54 173.25 114.72 Z" />
</g>
<g id="#bebfc5ff">
<path fill="#bebfc5" opacity="1.00" d=" M 119.98 115.27 C 130.45 113.96 140.95 115.96 151.43 114.73 C 151.48 116.03 151.53 117.33 151.57 118.64 C 142.99 119.65 134.33 119.30 125.71 119.67 C 122.88 120.03 121.52 117.09 119.98 115.27 Z" />
</g>
<g id="#aab6bfff">
<path fill="#aab6bf" opacity="1.00" d=" M 165.76 115.39 C 168.23 114.94 170.74 114.67 173.25 114.72 C 173.20 115.54 173.10 117.18 173.04 118.00 C 172.91 119.40 172.57 120.76 172.25 122.13 C 177.16 122.53 182.09 122.31 187.01 122.32 C 191.45 122.35 195.99 121.03 200.34 122.45 C 188.80 122.63 177.26 123.06 165.73 122.62 C 165.77 120.21 165.78 117.80 165.76 115.39 Z" />
</g>
<g id="#bec0c2ff">
<path fill="#bec0c2" opacity="1.00" d=" M 241.74 114.96 C 244.29 116.22 248.36 116.55 248.99 119.92 C 250.72 127.04 245.28 133.71 238.99 136.23 C 235.28 137.58 231.97 134.80 230.65 131.51 C 234.33 130.28 238.10 128.36 240.05 124.84 C 241.93 121.92 241.87 118.30 241.74 114.96 Z" />
</g>
<g id="#6e8087ff">
<path fill="#6e8087" opacity="1.00" d=" M 317.44 119.05 C 317.66 120.02 317.90 120.99 318.15 121.96 C 320.67 136.51 321.26 151.55 318.37 166.10 C 318.07 165.21 317.84 164.30 317.67 163.38 C 316.71 163.75 315.76 164.13 314.82 164.54 C 314.58 165.66 314.33 166.78 314.11 167.90 C 312.88 167.03 311.42 166.38 310.46 165.20 C 310.36 156.23 311.86 147.34 313.49 138.55 C 313.93 136.19 315.55 134.34 317.03 132.56 C 316.38 132.55 315.08 132.54 314.43 132.53 C 314.77 130.70 315.75 128.93 315.90 127.01 C 315.33 128.02 314.77 129.03 314.22 130.05 C 313.87 128.35 313.42 126.65 313.31 124.91 C 314.57 122.88 316.37 121.21 317.44 119.05 Z" />
</g>
<g id="#afb0acff">
<path fill="#afb0ac" opacity="1.00" d=" M 257.86 125.57 C 258.36 127.30 258.93 129.01 259.48 130.73 C 261.23 129.54 262.98 128.36 264.75 127.20 C 264.81 129.51 264.89 131.82 264.92 134.13 C 264.10 141.82 262.61 149.54 259.66 156.71 C 258.04 160.22 258.54 164.15 258.44 167.89 C 255.35 166.64 251.32 164.62 248.47 167.47 C 243.65 172.30 238.63 176.94 232.98 180.79 C 232.90 180.19 232.73 178.99 232.65 178.39 C 230.90 178.26 229.15 178.11 227.41 177.96 C 230.47 174.90 233.29 171.58 236.71 168.90 C 240.42 165.64 242.72 161.12 246.47 157.89 C 249.54 153.84 251.48 149.03 253.51 144.40 C 255.23 138.20 256.41 131.85 257.86 125.57 Z" />
</g>
<g id="#b7bcbcff">
<path fill="#b7bcbc" opacity="1.00" d=" M 203.95 128.04 C 206.00 129.42 208.91 129.72 210.35 131.84 C 211.48 136.26 207.79 141.68 202.96 141.24 C 196.98 141.11 191.00 141.48 185.03 141.00 C 184.62 141.22 183.81 141.65 183.41 141.87 C 181.29 140.14 179.51 138.04 178.03 135.74 C 184.98 135.45 191.92 135.77 198.87 135.66 C 202.66 135.57 204.24 131.28 203.95 128.04 Z" />
</g>
<g id="#c5c5c2ff">
<path fill="#c5c5c2" opacity="1.00" d=" M 118.02 136.17 C 125.11 135.38 132.25 135.34 139.36 135.81 C 137.98 137.69 136.52 139.50 134.93 141.21 C 130.63 141.29 126.32 141.69 122.02 141.32 C 119.79 140.52 119.04 138.06 118.02 136.17 Z" />
</g>
<g id="#babfbdff">
<path fill="#babfbd" opacity="1.00" d=" M 137.65 158.63 C 142.95 154.04 147.20 148.42 152.22 143.54 C 152.35 147.32 152.34 151.10 152.32 154.89 C 149.50 156.09 147.73 158.66 145.65 160.77 C 142.14 164.55 138.29 167.99 134.80 171.78 C 133.73 173.00 132.38 173.90 130.97 174.67 C 129.21 172.79 127.42 170.88 126.40 168.48 C 129.92 164.94 133.98 162.01 137.65 158.63 Z" />
</g>
<g id="#bdc3c4ff">
<path fill="#bdc3c4" opacity="1.00" d=" M 165.75 151.97 C 165.82 149.33 165.39 146.54 166.62 144.09 C 168.96 146.92 171.40 149.66 173.87 152.38 C 173.56 152.79 172.95 153.61 172.65 154.03 C 172.22 160.22 173.29 166.48 172.39 172.65 C 171.49 175.84 169.71 179.87 166.01 180.34 C 162.76 180.90 160.74 177.80 159.16 175.50 C 162.26 174.23 165.66 171.75 165.60 168.05 C 165.77 162.69 165.73 157.33 165.75 151.97 Z" />
</g>
<g id="#888c8cff">
<path fill="#888c8c" opacity="1.00" d=" M 223.59 146.54 C 229.41 141.59 238.61 145.79 240.11 152.89 C 239.85 154.48 239.54 156.06 239.18 157.63 C 233.99 157.13 229.54 153.07 224.11 154.66 C 223.66 151.98 223.51 149.25 223.59 146.54 Z" />
</g>
<g id="#a3a4a2ff">
<path fill="#a3a4a2" opacity="1.00" d=" M 220.80 158.01 C 220.20 154.05 220.20 149.30 223.59 146.54 C 223.51 149.25 223.66 151.98 224.11 154.66 C 229.54 153.07 233.99 157.13 239.18 157.63 C 238.36 160.02 236.66 162.56 233.85 162.61 C 229.33 161.66 225.05 159.80 220.80 158.01 Z" />
</g>
<g id="#d0cbc4ff">
<path fill="#d0cbc4" opacity="1.00" d=" M 240.11 152.89 C 241.50 155.34 244.13 156.55 246.47 157.89 C 242.72 161.12 240.42 165.64 236.71 168.90 C 236.13 167.56 235.93 165.61 234.00 165.84 C 228.61 165.77 222.79 163.41 220.80 158.01 C 225.05 159.80 229.33 161.66 233.85 162.61 C 236.66 162.56 238.36 160.02 239.18 157.63 C 239.54 156.06 239.85 154.48 240.11 152.89 Z" />
</g>
<g id="#5b6462ff">
<path fill="#5b6462" opacity="1.00" d=" M 258.44 167.89 C 258.54 164.15 258.04 160.22 259.66 156.71 C 259.26 159.20 260.17 161.55 260.57 163.96 C 260.26 166.83 258.90 169.47 257.84 172.13 C 258.10 170.72 258.29 169.31 258.44 167.89 Z" />
</g>
<g id="#c4caccff">
<path fill="#c4cacc" opacity="1.00" d=" M 100.36 158.49 C 102.04 158.82 103.49 159.75 104.89 160.67 C 104.99 160.20 105.18 159.25 105.28 158.77 C 106.67 162.29 107.89 166.14 106.73 169.91 C 104.66 177.33 102.79 184.81 100.45 192.14 C 100.34 191.60 100.12 190.51 100.02 189.96 C 97.57 191.35 95.19 193.03 92.36 193.54 C 95.91 184.85 97.38 175.51 100.36 166.62 C 101.34 163.97 101.32 161.15 100.36 158.49 Z" />
</g>
<g id="#b5bdbfff">
<path fill="#b5bdbf" opacity="1.00" d=" M 202.13 158.01 C 202.61 158.78 203.10 159.55 203.59 160.31 C 205.73 161.35 210.00 161.45 209.69 164.69 C 208.38 168.55 205.15 171.50 201.94 173.85 C 198.62 175.28 196.35 171.69 194.55 169.54 C 197.55 167.10 200.41 164.35 202.39 161.00 C 202.33 160.26 202.20 158.76 202.13 158.01 Z" />
</g>
<g id="#b9bbbcff">
<path fill="#b9bbbc" opacity="1.00" d=" M 248.47 167.47 C 251.32 164.62 255.35 166.64 258.44 167.89 C 258.29 169.31 258.10 170.72 257.84 172.13 C 257.78 172.40 257.66 172.96 257.59 173.23 C 257.41 172.55 257.04 171.19 256.86 170.51 C 255.04 170.85 253.34 171.59 251.74 172.50 C 252.88 173.08 254.04 173.64 255.21 174.18 C 249.83 173.27 244.28 175.64 241.16 180.09 C 236.30 187.33 227.87 190.67 220.57 194.85 C 219.62 193.56 219.46 191.99 219.44 190.44 C 222.20 188.95 224.07 186.43 226.16 184.18 C 228.23 182.69 230.74 181.99 232.98 180.79 C 238.63 176.94 243.65 172.30 248.47 167.47 Z" />
</g>
<g id="#fcd5c6ff">
<path fill="#fcd5c6" opacity="1.00" d=" M 264.54 178.26 C 263.92 173.75 266.97 169.62 271.02 167.95 C 276.01 166.17 281.58 170.88 281.76 175.92 C 282.17 179.64 279.20 182.45 278.01 185.75 C 276.54 184.19 275.01 182.59 273.03 181.70 C 270.71 182.25 268.81 183.76 266.80 184.95 C 266.54 182.57 265.76 180.31 264.54 178.26 Z" />
</g>
<g id="#dfe3e1ff">
<path fill="#dfe3e1" opacity="1.00" d=" M 251.74 172.50 C 253.34 171.59 255.04 170.85 256.86 170.51 C 257.04 171.19 257.41 172.55 257.59 173.23 L 257.64 174.66 C 257.03 174.54 255.82 174.30 255.21 174.18 C 254.04 173.64 252.88 173.08 251.74 172.50 Z" />
</g>
<g id="#a8b1b3ff">
<path fill="#a8b1b3" opacity="1.00" d=" M 200.16 192.14 C 209.74 188.50 219.42 184.55 227.41 177.96 C 229.15 178.11 230.90 178.26 232.65 178.39 C 232.73 178.99 232.90 180.19 232.98 180.79 C 230.74 181.99 228.23 182.69 226.16 184.18 C 224.07 186.43 222.20 188.95 219.44 190.44 C 219.46 191.99 219.62 193.56 220.57 194.85 C 212.26 198.84 203.49 202.21 194.32 203.40 C 190.95 201.83 187.77 199.60 183.97 199.25 C 179.29 198.74 174.59 198.35 169.95 197.56 C 172.05 197.03 174.16 196.48 176.29 196.04 C 184.36 195.65 192.42 194.55 200.16 192.14 Z" />
</g>
<g id="#697c84ff">
<path fill="#697c84" opacity="1.00" d=" M 312.32 183.14 C 313.29 181.28 314.33 179.46 315.41 177.67 C 315.41 179.97 314.94 182.36 315.57 184.62 C 319.62 189.28 325.47 191.82 330.05 195.89 C 337.62 201.74 341.52 211.52 341.53 220.93 C 339.86 219.90 338.11 219.03 336.30 218.31 C 334.19 220.90 331.40 223.04 330.00 226.13 C 328.43 229.25 330.68 232.49 330.18 235.75 C 330.74 235.27 331.30 234.80 331.87 234.33 C 331.95 235.06 332.11 236.52 332.19 237.25 C 326.12 240.04 322.46 246.01 319.19 251.55 C 318.71 251.62 317.74 251.75 317.25 251.82 C 318.64 253.22 320.28 254.72 320.19 256.89 C 320.41 264.92 320.28 272.97 320.51 281.01 C 320.50 284.18 320.89 287.91 318.32 290.30 C 316.41 292.61 313.11 291.24 311.01 289.95 C 308.32 284.36 309.53 278.00 309.29 272.04 C 309.09 263.97 310.41 255.83 309.17 247.82 C 307.40 242.54 303.07 238.04 297.63 236.59 C 291.12 234.41 284.35 237.13 277.71 236.19 C 283.72 232.94 290.62 230.57 294.99 224.96 C 297.27 222.49 297.39 219.00 297.83 215.85 C 303.40 214.56 308.25 210.86 311.33 206.08 C 315.15 199.07 315.11 190.51 312.32 183.14 Z" />
</g>
<g id="#0c0f13ff">
<path fill="#0c0f13" opacity="1.00" d=" M 264.77 184.82 C 264.34 182.66 264.35 180.44 264.54 178.26 C 265.76 180.31 266.54 182.57 266.80 184.95 C 268.81 183.76 270.71 182.25 273.03 181.70 C 275.01 182.59 276.54 184.19 278.01 185.75 C 278.42 186.21 279.23 187.12 279.63 187.58 C 281.66 186.21 283.76 184.96 285.96 183.90 C 286.61 184.08 287.91 184.43 288.57 184.61 C 286.18 185.84 283.57 186.74 281.41 188.36 C 281.47 191.50 281.86 194.76 280.30 197.65 C 282.53 198.84 284.69 200.15 286.79 201.56 C 284.39 201.51 282.07 200.90 279.80 200.21 C 280.82 201.85 281.98 203.40 283.26 204.85 C 286.13 207.73 285.08 212.33 284.31 215.90 C 284.08 217.30 282.27 216.40 281.41 216.41 C 283.05 213.26 283.00 209.50 281.31 206.40 C 280.13 204.62 278.74 203.02 277.28 201.48 C 273.73 202.86 269.05 202.60 267.11 206.51 C 264.73 211.45 268.16 216.18 272.22 218.77 C 271.68 219.75 271.13 220.73 270.59 221.72 C 268.24 219.47 265.36 217.18 265.26 213.63 C 264.99 209.20 264.20 204.80 261.88 200.94 C 262.77 200.35 263.67 199.77 264.58 199.21 C 264.36 197.21 263.39 195.44 262.42 193.72 C 262.05 192.73 261.75 191.72 261.46 190.70 C 262.26 189.82 263.07 188.94 263.87 188.06 C 262.25 186.48 260.68 184.85 259.14 183.20 C 261.05 183.60 262.90 184.24 264.77 184.82 M 268.32 193.91 C 269.12 196.50 271.88 197.03 274.23 196.48 C 274.87 195.07 275.90 193.65 275.59 192.01 C 275.48 190.04 273.36 189.34 272.01 188.38 C 270.13 189.60 267.19 191.14 268.32 193.91 Z" />
</g>
<g id="#fcd0c1ff">
<path fill="#fcd0c1" opacity="1.00" d=" M 246.24 187.99 C 247.48 183.44 252.90 180.56 257.38 182.07 C 254.94 182.95 252.53 183.89 250.18 184.98 C 252.27 187.45 253.27 190.51 253.65 193.68 C 256.56 194.07 259.50 194.07 262.42 193.72 C 263.39 195.44 264.36 197.21 264.58 199.21 C 260.72 199.77 256.74 199.98 252.97 198.78 C 252.67 198.56 252.05 198.11 251.75 197.88 C 250.77 197.13 249.78 196.40 248.84 195.61 C 247.00 193.57 245.51 190.81 246.24 187.99 Z" />
</g>
<g id="#fdbcb0ff">
<path fill="#fdbcb0" opacity="1.00" d=" M 257.38 182.07 C 257.96 182.45 258.55 182.83 259.14 183.20 C 260.68 184.85 262.25 186.48 263.87 188.06 C 263.07 188.94 262.26 189.82 261.46 190.70 C 261.75 191.72 262.05 192.73 262.42 193.72 C 259.50 194.07 256.56 194.07 253.65 193.68 C 253.27 190.51 252.27 187.45 250.18 184.98 C 252.53 183.89 254.94 182.95 257.38 182.07 Z" />
</g>
<g id="#fcafa4ff">
<path fill="#fcafa4" opacity="1.00" d=" M 281.41 188.36 C 283.57 186.74 286.18 185.84 288.57 184.61 C 294.34 184.56 299.90 190.10 298.20 196.03 C 297.19 201.09 291.12 202.20 286.79 201.56 C 284.69 200.15 282.53 198.84 280.30 197.65 C 281.86 194.76 281.47 191.50 281.41 188.36 Z" />
</g>
<g id="#fac0beff">
<path fill="#fac0be" opacity="1.00" d=" M 268.32 193.91 C 267.19 191.14 270.13 189.60 272.01 188.38 C 273.36 189.34 275.48 190.04 275.59 192.01 C 275.90 193.65 274.87 195.07 274.23 196.48 C 271.88 197.03 269.12 196.50 268.32 193.91 Z" />
</g>
<g id="#b5bdc3ff">
<path fill="#b5bdc3" opacity="1.00" d=" M 92.36 193.54 C 95.19 193.03 97.57 191.35 100.02 189.96 C 100.12 190.51 100.34 191.60 100.45 192.14 C 100.20 192.99 99.72 194.68 99.47 195.53 C 100.36 195.36 102.14 195.01 103.03 194.83 C 98.64 197.15 94.09 199.61 89.18 200.71 C 89.94 198.26 90.99 195.92 92.10 193.61 L 92.36 193.54 Z" />
</g>
<g id="#e8e4d8ff">
<path fill="#e8e4d8" opacity="1.00" d=" M 147.57 194.33 C 150.52 193.65 153.50 194.01 156.34 194.96 C 154.92 195.07 153.50 195.20 152.08 195.34 C 153.69 196.59 155.30 197.84 156.90 199.12 C 155.85 199.67 154.79 200.21 153.73 200.73 C 150.79 199.94 147.92 198.91 145.15 197.63 C 146.03 196.58 146.80 195.46 147.57 194.33 Z" />
</g>
<g id="#bac0c2ff">
<path fill="#bac0c2" opacity="1.00" d=" M 152.08 195.34 C 153.50 195.20 154.92 195.07 156.34 194.96 C 162.91 196.19 169.64 195.76 176.29 196.04 C 174.16 196.48 172.05 197.03 169.95 197.56 C 174.59 198.35 179.29 198.74 183.97 199.25 C 187.77 199.60 190.95 201.83 194.32 203.40 C 180.83 205.06 166.73 205.13 153.73 200.73 C 154.79 200.21 155.85 199.67 156.90 199.12 C 155.30 197.84 153.69 196.59 152.08 195.34 Z" />
</g>
<g id="#1a2329ff">
<path fill="#1a2329" opacity="1.00" d=" M 248.84 195.61 C 249.78 196.40 250.77 197.13 251.75 197.88 C 249.70 200.65 246.56 202.85 245.93 206.43 C 250.07 206.59 253.88 209.15 258.06 208.38 C 258.88 206.38 259.76 204.39 260.60 202.39 C 260.72 206.57 260.36 210.73 259.80 214.87 C 260.09 215.08 260.66 215.51 260.94 215.72 C 257.09 217.40 252.91 217.73 248.77 217.34 C 247.68 214.15 247.25 208.62 242.70 209.03 C 242.14 206.77 241.68 204.47 241.44 202.15 C 240.23 202.67 239.02 203.18 237.81 203.69 C 238.81 202.94 239.65 201.74 241.00 201.65 C 242.27 202.20 242.85 203.58 243.74 204.57 C 245.36 201.54 247.09 198.57 248.84 195.61 Z" />
</g>
<g id="#2f3035ff">
<path fill="#2f3035" opacity="1.00" d=" M 251.75 197.88 C 252.05 198.11 252.67 198.56 252.97 198.78 C 253.67 202.66 258.16 201.27 260.96 201.55 L 260.60 202.39 C 259.76 204.39 258.88 206.38 258.06 208.38 C 253.88 209.15 250.07 206.59 245.93 206.43 C 246.56 202.85 249.70 200.65 251.75 197.88 Z" />
<path fill="#2f3035" opacity="1.00" d=" M 38.93 346.91 C 39.27 341.67 43.53 336.77 49.12 337.54 C 50.62 338.24 52.09 339.04 53.25 340.26 C 50.51 339.80 47.70 339.05 44.93 339.58 C 41.72 340.89 40.39 344.78 40.42 348.00 C 41.06 349.61 42.11 351.01 42.96 352.52 C 43.03 352.87 43.18 353.56 43.25 353.91 C 40.51 352.58 39.62 349.61 38.93 346.91 Z" />
</g>
<g id="#7a5e59ff">
<path fill="#7a5e59" opacity="1.00" d=" M 252.97 198.78 C 256.74 199.98 260.72 199.77 264.58 199.21 C 263.67 199.77 262.77 200.35 261.88 200.94 C 261.65 201.09 261.19 201.40 260.96 201.55 C 258.16 201.27 253.67 202.66 252.97 198.78 Z" />
</g>
<g id="#fc9f9bff">
<path fill="#fc9f9b" opacity="1.00" d=" M 267.11 206.51 C 269.05 202.60 273.73 202.86 277.28 201.48 C 278.74 203.02 280.13 204.62 281.31 206.40 C 280.51 207.88 280.15 209.70 278.92 210.91 C 275.68 212.35 272.03 212.06 268.59 211.79 C 268.12 210.02 267.62 208.26 267.11 206.51 Z" />
</g>
<g id="#fbb3aaff">
<path fill="#fbb3aa" opacity="1.00" d=" M 267.11 206.51 C 267.62 208.26 268.12 210.02 268.59 211.79 C 272.03 212.06 275.68 212.35 278.92 210.91 C 280.15 209.70 280.51 207.88 281.31 206.40 C 283.00 209.50 283.05 213.26 281.41 216.41 C 279.16 219.11 275.53 220.13 272.22 218.77 C 268.16 216.18 264.73 211.45 267.11 206.51 Z" />
</g>
<g id="#0d1a1fff">
<path fill="#0d1a1f" opacity="1.00" d=" M 242.70 209.03 C 247.25 208.62 247.68 214.15 248.77 217.34 C 239.34 223.48 229.55 229.43 221.51 237.44 C 216.28 242.05 211.13 247.40 209.18 254.26 C 209.01 254.37 208.67 254.59 208.50 254.70 C 205.58 258.18 201.61 255.10 200.70 251.64 L 200.36 250.69 C 203.50 246.85 205.41 242.21 208.31 238.20 C 216.96 225.59 230.31 217.49 242.70 209.03 Z" />
</g>
<g id="#5b757eff">
<path fill="#5b757e" opacity="1.00" d=" M 95.65 223.65 C 102.56 219.56 110.25 216.95 116.98 212.55 C 122.80 216.97 129.70 219.55 136.38 222.35 C 146.22 226.32 156.58 228.91 167.11 230.25 C 166.61 230.64 165.62 231.43 165.12 231.83 C 170.60 231.73 175.94 232.97 181.35 233.50 C 185.20 233.30 188.71 235.18 191.75 237.35 C 193.48 238.96 195.09 240.79 197.44 241.51 C 196.39 242.72 195.25 243.84 194.04 244.89 C 190.37 241.28 186.51 237.09 181.07 236.53 C 175.19 235.41 169.49 237.68 164.54 240.64 C 159.66 238.07 154.38 236.32 149.64 233.47 C 144.56 231.07 140.06 227.61 134.92 225.36 C 128.79 228.97 123.34 233.82 116.73 236.59 C 109.49 237.15 102.20 236.18 94.98 236.97 C 89.24 237.49 84.56 241.28 80.77 245.33 C 79.52 244.02 78.03 242.95 76.89 241.53 C 76.06 239.28 75.57 236.91 74.56 234.72 C 74.62 234.26 74.73 233.36 74.78 232.91 C 82.19 230.97 88.86 227.06 95.65 223.65 Z" />
</g>
<g id="#77888fff">
<path fill="#77888f" opacity="1.00" d=" M 336.30 218.31 C 338.11 219.03 339.86 219.90 341.53 220.93 C 340.89 223.98 340.14 227.00 339.04 229.92 C 338.02 232.16 340.02 234.03 341.20 235.71 C 338.09 234.85 335.00 235.96 332.19 237.25 C 332.11 236.52 331.95 235.06 331.87 234.33 C 331.30 234.80 330.74 235.27 330.18 235.75 C 330.68 232.49 328.43 229.25 330.00 226.13 C 331.40 223.04 334.19 220.90 336.30 218.31 Z" />
</g>
<g id="#c3bdb4ff">
<path fill="#c3bdb4" opacity="1.00" d=" M 116.73 236.59 C 123.34 233.82 128.79 228.97 134.92 225.36 C 140.06 227.61 144.56 231.07 149.64 233.47 C 154.38 236.32 159.66 238.07 164.54 240.64 C 162.26 243.36 160.11 246.20 158.73 249.49 C 156.69 247.64 156.13 244.75 154.19 242.82 C 151.84 240.39 148.87 238.40 145.58 237.56 C 136.02 236.17 126.34 237.01 116.73 236.59 Z" />
<path fill="#c3bdb4" opacity="1.00" d=" M 311.37 366.93 C 312.50 367.88 313.65 368.81 314.77 369.78 C 313.16 369.38 311.66 369.99 310.17 370.52 C 310.58 369.32 310.98 368.12 311.37 366.93 Z" />
</g>
<g id="#5b767fff">
<path fill="#5b767f" opacity="1.00" d=" M 240.48 235.62 C 245.02 231.66 249.43 227.37 255.24 225.30 C 258.73 229.35 263.16 232.31 268.16 234.17 C 259.10 235.80 252.39 242.48 246.48 249.03 C 245.07 244.94 242.81 241.08 239.11 238.67 C 239.37 237.58 239.45 236.32 240.48 235.62 Z" />
</g>
<g id="#446878ff">
<path fill="#446878" opacity="1.00" d=" M 167.11 230.25 C 180.40 231.02 194.07 231.48 206.93 227.46 C 203.41 231.89 199.67 236.25 197.44 241.51 C 195.09 240.79 193.48 238.96 191.75 237.35 C 188.71 235.18 185.20 233.30 181.35 233.50 C 175.94 232.97 170.60 231.73 165.12 231.83 C 165.62 231.43 166.61 230.64 167.11 230.25 Z" />
</g>
<g id="#b5aba3ff">
<path fill="#b5aba3" opacity="1.00" d=" M 65.94 236.59 C 68.95 235.53 71.89 234.27 74.78 232.91 C 74.73 233.36 74.62 234.26 74.56 234.72 C 74.03 236.70 72.98 238.48 71.85 240.18 C 69.84 239.06 67.85 237.89 65.94 236.59 Z" />
</g>
<g id="#909493ff">
<path fill="#909493" opacity="1.00" d=" M 74.56 234.72 C 75.57 236.91 76.06 239.28 76.89 241.53 C 78.03 242.95 79.52 244.02 80.77 245.33 L 81.28 246.49 C 77.71 245.11 75.01 242.26 71.85 240.18 C 72.98 238.48 74.03 236.70 74.56 234.72 Z" />
</g>
<g id="#0e1c22ff">
<path fill="#0e1c22" opacity="1.00" d=" M 38.63 244.86 C 47.42 242.92 57.06 242.71 65.25 246.93 C 75.47 251.13 82.54 260.68 85.58 271.08 C 90.62 290.58 77.78 313.09 57.92 317.58 C 37.54 322.99 15.05 307.74 11.60 287.14 C 8.38 269.01 20.86 249.58 38.63 244.86 M 29.51 273.53 C 26.63 280.97 28.49 290.49 35.08 295.41 C 42.58 303.71 57.04 302.43 63.74 293.79 C 67.53 288.65 69.87 281.96 68.22 275.59 C 66.80 269.53 62.03 264.44 56.19 262.42 C 46.41 256.94 33.02 263.25 29.51 273.53 Z" />
<path fill="#0e1c22" opacity="1.00" d=" M 173.83 244.75 C 177.10 244.09 180.98 243.91 183.71 246.19 C 187.03 248.76 188.63 252.83 190.28 256.57 C 194.07 266.10 198.51 275.35 202.44 284.82 C 206.41 292.35 209.01 300.50 212.83 308.10 C 213.69 309.73 213.48 311.64 213.23 313.40 C 211.69 315.31 210.08 317.27 207.84 318.37 C 202.55 319.98 197.55 316.19 195.36 311.61 C 193.64 309.17 193.54 305.72 191.21 303.76 C 182.41 304.35 173.57 303.95 164.77 304.58 C 163.97 306.62 163.15 308.66 162.35 310.72 C 161.00 314.74 157.54 318.40 153.12 318.73 C 147.34 319.83 141.58 313.28 143.96 307.72 C 150.97 291.96 157.53 276.01 164.21 260.11 C 166.84 254.71 167.92 247.70 173.83 244.75 M 175.71 277.14 C 174.67 280.77 172.69 284.02 171.34 287.53 C 175.87 287.66 180.40 287.56 184.94 287.70 C 183.11 282.28 180.51 277.15 178.19 271.94 C 176.72 273.31 176.28 275.30 175.71 277.14 Z" />
</g>
<g id="#0d1b21ff">
<path fill="#0d1b21" opacity="1.00" d=" M 261.56 246.47 C 264.10 243.70 268.25 244.01 271.64 244.49 C 275.94 246.10 279.56 252.46 275.10 255.97 C 270.06 261.77 265.00 267.53 259.63 273.03 C 257.91 274.88 256.28 276.82 254.78 278.85 C 255.94 280.23 257.10 281.62 258.29 282.99 C 265.31 291.08 271.49 299.85 278.34 308.08 C 279.61 312.56 276.32 316.82 272.31 318.44 C 268.53 319.59 264.36 318.16 261.95 315.08 C 256.67 308.74 251.94 301.92 246.06 296.08 C 245.05 295.03 244.02 294.00 242.98 292.99 C 240.71 295.68 237.59 297.73 235.87 300.84 C 235.78 304.85 236.47 308.86 236.06 312.88 C 235.03 315.31 232.92 317.03 230.82 318.51 C 227.35 318.93 223.64 318.12 221.14 315.56 C 220.21 314.31 219.45 312.95 218.77 311.55 C 217.91 306.08 218.38 300.52 218.34 295.00 C 218.21 281.68 218.36 268.35 218.23 255.03 C 217.52 249.29 223.25 243.54 229.01 244.43 C 232.29 244.71 234.84 247.40 236.15 250.26 C 236.59 258.29 235.75 266.31 235.75 274.33 C 238.39 271.68 240.54 268.60 243.17 265.94 C 249.44 259.58 255.22 252.75 261.56 246.47 Z" />
</g>
<g id="#0b1a21ff">
<path fill="#0b1a21" opacity="1.00" d=" M 93.87 245.73 C 109.24 245.21 124.64 245.76 140.01 245.17 C 144.06 244.70 147.68 247.70 149.13 251.29 C 150.19 255.24 148.70 259.23 145.48 261.67 C 141.92 263.18 137.97 262.62 134.22 262.68 C 132.12 262.99 129.37 261.92 127.76 263.64 C 128.80 274.40 127.98 285.23 128.27 296.02 C 128.23 300.69 128.45 305.36 128.41 310.04 C 128.58 313.92 125.18 316.63 122.10 318.34 C 117.30 319.64 112.55 316.44 110.61 312.15 C 109.90 295.68 110.38 279.17 110.42 262.69 C 105.26 262.56 100.10 263.09 94.95 263.14 C 91.05 262.92 88.81 259.43 87.73 256.08 C 86.87 251.69 89.61 247.06 93.87 245.73 Z" />
</g>
<g id="#0c1a20ff">
<path fill="#0c1a20" opacity="1.00" d=" M 282.73 254.98 C 282.29 249.46 287.20 243.64 293.00 244.52 C 296.82 244.52 299.76 247.66 300.97 251.05 C 301.60 259.37 300.93 267.73 301.22 276.06 C 301.41 282.57 300.18 289.95 304.53 295.46 C 307.72 298.18 311.60 300.72 315.98 300.46 C 323.12 300.58 329.38 294.10 329.43 287.04 C 329.86 276.02 329.43 265.00 329.62 253.98 C 329.37 249.89 332.54 246.36 336.10 244.81 C 342.22 242.97 348.53 248.91 348.20 255.01 C 348.28 265.36 348.40 275.72 348.00 286.06 C 347.82 293.76 344.85 301.21 340.36 307.40 C 329.82 320.32 309.11 321.97 296.00 312.11 C 286.99 305.04 282.36 293.30 282.73 282.01 C 282.87 273.00 282.80 263.99 282.73 254.98 Z" />
</g>
<g id="#d2d0ccff">
<path fill="#d2d0cc" opacity="1.00" d=" M 309.17 247.82 C 310.41 255.83 309.09 263.97 309.29 272.04 C 309.53 278.00 308.32 284.36 311.01 289.95 C 310.69 289.78 310.05 289.46 309.73 289.30 C 307.93 291.29 306.28 293.41 304.53 295.46 C 300.18 289.95 301.41 282.57 301.22 276.06 C 300.93 267.73 301.60 259.37 300.97 251.05 C 303.69 252.38 306.43 253.66 309.17 254.94 C 309.21 252.57 309.26 250.19 309.17 247.82 Z" />
</g>
<g id="#697a81ff">
<path fill="#697a81" opacity="1.00" d=" M 356.06 248.00 C 359.01 250.84 363.13 252.00 365.97 254.97 C 371.06 259.42 375.71 264.89 377.13 271.68 C 379.29 282.66 378.78 293.95 378.17 305.06 C 377.42 309.80 376.65 314.54 375.27 319.15 C 373.30 324.10 370.92 329.12 366.71 332.57 C 358.81 339.44 347.97 340.67 338.19 343.04 L 337.90 343.03 C 335.38 342.29 332.96 341.25 330.43 340.55 C 328.95 337.80 327.24 335.13 324.85 333.09 C 329.34 334.43 334.18 334.33 338.57 332.62 C 339.00 332.95 339.88 333.62 340.32 333.95 C 341.95 333.66 343.58 333.42 345.21 333.14 C 345.36 333.67 345.65 334.73 345.80 335.26 C 349.42 333.90 351.44 330.66 353.55 327.66 C 357.12 324.50 355.59 319.26 356.29 315.08 C 357.20 315.61 358.13 316.14 359.06 316.68 C 358.98 315.66 358.92 314.65 358.87 313.64 C 358.37 313.57 357.38 313.43 356.88 313.36 C 357.24 311.99 356.84 310.07 358.39 309.35 C 359.66 309.26 360.93 309.34 362.21 309.37 C 360.95 304.78 359.46 300.27 359.83 295.40 C 358.48 294.93 357.14 294.46 355.81 294.00 C 357.00 287.08 357.42 280.03 356.97 273.03 C 356.46 264.69 357.59 256.25 356.06 248.00 Z" />
</g>
<g id="#bbbfbeff">
<path fill="#bbbfbe" opacity="1.00" d=" M 236.15 250.26 C 238.39 251.11 240.99 251.49 242.77 253.20 C 243.28 257.41 242.92 261.70 243.17 265.94 C 240.54 268.60 238.39 271.68 235.75 274.33 C 235.75 266.31 236.59 258.29 236.15 250.26 Z" />
</g>
<g id="#cfd1cdff">
<path fill="#cfd1cd" opacity="1.00" d=" M 149.13 251.29 C 149.85 252.32 150.57 253.35 151.30 254.38 C 150.55 257.33 152.46 259.50 154.98 260.68 C 153.81 262.12 152.56 263.49 151.22 264.76 C 149.26 263.82 147.35 262.79 145.48 261.67 C 148.70 259.23 150.19 255.24 149.13 251.29 Z" />
</g>
<g id="#25353dff">
<path fill="#25353d" opacity="1.00" d=" M 200.07 250.85 L 200.70 251.64 C 201.61 255.10 205.58 258.18 208.50 254.70 C 208.41 256.55 207.04 257.93 206.16 259.45 C 204.69 259.54 203.22 259.64 201.75 259.74 C 199.28 257.45 197.20 253.75 200.07 250.85 Z" />
</g>
<g id="#b9bbbfff">
<path fill="#b9bbbf" opacity="1.00" d=" M 154.98 260.68 C 152.46 259.50 150.55 257.33 151.30 254.38 C 152.73 255.02 154.43 255.30 155.61 256.43 C 155.88 257.88 155.36 259.30 154.98 260.68 Z" />
</g>
<g id="#bdc8c9ff">
<path fill="#bdc8c9" opacity="1.00" d=" M 275.10 255.97 C 276.78 257.18 279.07 257.98 279.98 259.96 C 278.91 262.95 276.31 264.99 274.21 267.24 C 271.20 270.12 268.94 273.64 266.20 276.74 L 265.85 276.70 C 264.34 276.49 262.82 276.34 261.30 276.24 C 260.74 275.17 260.18 274.10 259.63 273.03 C 265.00 267.53 270.06 261.77 275.10 255.97 Z" />
</g>
<g id="#c6cac6ff">
<path fill="#c6cac6" opacity="1.00" d=" M 29.51 273.53 C 33.02 263.25 46.41 256.94 56.19 262.42 C 50.85 262.99 45.66 265.03 41.49 268.43 C 37.97 271.41 36.64 276.02 35.74 280.37 C 33.56 278.18 31.59 275.80 29.51 273.53 Z" />
</g>
<g id="#e2d9d0ff">
<path fill="#e2d9d0" opacity="1.00" d=" M 134.22 262.68 C 137.97 262.62 141.92 263.18 145.48 261.67 C 147.35 262.79 149.26 263.82 151.22 264.76 C 147.02 267.24 142.10 268.07 137.30 268.38 C 136.92 268.80 136.17 269.64 135.80 270.06 C 135.64 267.53 135.10 265.05 134.22 262.68 Z" />
</g>
<g id="#fcf7e9ff">
<path fill="#fcf7e9" opacity="1.00" d=" M 41.49 268.43 C 45.66 265.03 50.85 262.99 56.19 262.42 C 62.03 264.44 66.80 269.53 68.22 275.59 C 69.87 281.96 67.53 288.65 63.74 293.79 C 57.04 302.43 42.58 303.71 35.08 295.41 C 36.98 290.58 34.99 285.37 35.74 280.37 C 36.64 276.02 37.97 271.41 41.49 268.43 M 41.21 273.53 L 40.63 273.34 C 40.54 273.75 40.36 274.55 40.27 274.95 C 36.83 278.68 37.80 285.31 41.02 289.01 C 43.33 290.63 46.01 291.51 48.81 291.80 C 54.62 291.98 59.92 286.82 59.63 280.98 C 60.11 276.66 57.00 273.07 53.53 270.99 C 49.35 269.98 43.96 269.40 41.21 273.53 Z" />
</g>
<g id="#cacac4ff">
<path fill="#cacac4" opacity="1.00" d=" M 127.76 263.64 C 129.37 261.92 132.12 262.99 134.22 262.68 C 135.10 265.05 135.64 267.53 135.80 270.06 C 136.83 283.67 136.07 297.36 136.45 311.00 C 136.62 314.73 136.13 319.54 132.22 321.25 C 128.92 323.70 124.99 321.44 121.51 320.76 C 121.71 319.95 121.90 319.14 122.10 318.34 C 125.18 316.63 128.58 313.92 128.41 310.04 C 128.45 305.36 128.23 300.69 128.27 296.02 C 127.98 285.23 128.80 274.40 127.76 263.64 Z" />
</g>
<g id="#cc434eff">
<path fill="#cc434e" opacity="1.00" d=" M 41.21 273.53 C 43.96 269.40 49.35 269.98 53.53 270.99 C 52.95 272.75 54.23 274.00 55.29 275.19 C 54.07 276.93 53.63 278.96 53.66 281.07 C 53.08 278.89 51.85 276.98 50.25 275.42 C 48.86 274.55 47.39 273.03 45.63 273.80 C 44.15 274.39 42.64 274.13 41.21 273.53 Z" />
</g>
<g id="#a22b3bff">
<path fill="#a22b3b" opacity="1.00" d=" M 55.29 275.19 C 54.23 274.00 52.95 272.75 53.53 270.99 C 57.00 273.07 60.11 276.66 59.63 280.98 C 59.92 286.82 54.62 291.98 48.81 291.80 C 50.00 289.89 51.17 287.96 52.16 285.94 C 52.87 284.39 53.62 282.80 53.66 281.07 C 53.63 278.96 54.07 276.93 55.29 275.19 Z" />
</g>
<g id="#f4ebe0ff">
<path fill="#f4ebe0" opacity="1.00" d=" M 175.71 277.14 C 176.28 275.30 176.72 273.31 178.19 271.94 C 180.51 277.15 183.11 282.28 184.94 287.70 C 180.40 287.56 175.87 287.66 171.34 287.53 C 172.69 284.02 174.67 280.77 175.71 277.14 Z" />
</g>
<g id="#f93f52ff">
<path fill="#f93f52" opacity="1.00" d=" M 40.63 273.34 L 41.21 273.53 C 42.64 274.13 44.15 274.39 45.63 273.80 C 47.39 273.03 48.86 274.55 50.25 275.42 C 48.62 278.07 47.26 280.87 46.18 283.78 C 47.16 284.48 48.14 285.19 49.12 285.90 C 48.34 285.89 46.79 285.86 46.01 285.85 C 41.80 284.04 40.42 279.15 40.27 274.95 C 40.36 274.55 40.54 273.75 40.63 273.34 Z" />
</g>
<g id="#9eaeb4ff">
<path fill="#9eaeb4" opacity="1.00" d=" M 254.78 278.85 C 256.28 276.82 257.91 274.88 259.63 273.03 C 260.18 274.10 260.74 275.17 261.30 276.24 C 262.82 276.34 264.34 276.49 265.85 276.70 C 264.29 279.93 260.38 280.34 258.29 282.99 C 257.10 281.62 255.94 280.23 254.78 278.85 Z" />
</g>
<g id="#d6d4cdff">
<path fill="#d6d4cd" opacity="1.00" d=" M 29.51 273.53 C 31.59 275.80 33.56 278.18 35.74 280.37 C 34.99 285.37 36.98 290.58 35.08 295.41 C 28.49 290.49 26.63 280.97 29.51 273.53 Z" />
</g>
<g id="#db494bff">
<path fill="#db494b" opacity="1.00" d=" M 41.02 289.01 C 37.80 285.31 36.83 278.68 40.27 274.95 C 40.42 279.15 41.80 284.04 46.01 285.85 C 44.08 286.42 42.52 287.72 41.02 289.01 Z" />
</g>
<g id="#fd4c6aff">
<path fill="#fd4c6a" opacity="1.00" d=" M 46.18 283.78 C 47.26 280.87 48.62 278.07 50.25 275.42 C 51.85 276.98 53.08 278.89 53.66 281.07 C 53.62 282.80 52.87 284.39 52.16 285.94 C 51.40 285.93 49.88 285.91 49.12 285.90 C 48.14 285.19 47.16 284.48 46.18 283.78 Z" />
</g>
<g id="#546e7aff">
<path fill="#546e7a" opacity="1.00" d=" M 95.28 289.03 C 95.84 285.86 95.92 282.43 97.95 279.75 C 98.94 281.02 100.00 282.34 100.18 284.01 C 101.37 289.53 101.30 295.20 101.49 300.81 C 100.29 303.08 98.61 305.04 96.85 306.89 C 94.41 309.50 93.41 313.22 90.62 315.53 C 88.31 317.10 85.69 318.12 83.20 319.36 C 82.27 319.09 81.33 318.83 80.39 318.57 C 79.61 320.24 78.82 321.91 78.03 323.58 C 74.76 323.53 71.35 323.60 68.42 325.25 C 67.49 325.07 65.62 324.71 64.69 324.52 C 80.28 319.29 92.41 305.22 95.28 289.03 Z" />
</g>
<g id="#c23a47ff">
<path fill="#c23a47" opacity="1.00" d=" M 41.02 289.01 C 42.52 287.72 44.08 286.42 46.01 285.85 C 46.79 285.86 48.34 285.89 49.12 285.90 C 49.88 285.91 51.40 285.93 52.16 285.94 C 51.17 287.96 50.00 289.89 48.81 291.80 C 46.01 291.51 43.33 290.63 41.02 289.01 Z" />
</g>
<g id="#b5bcbdff">
<path fill="#b5bcbd" opacity="1.00" d=" M 235.87 300.84 C 237.59 297.73 240.71 295.68 242.98 292.99 C 244.02 294.00 245.05 295.03 246.06 296.08 C 243.69 297.92 244.47 301.18 243.75 303.75 C 243.43 305.32 243.06 306.89 242.69 308.46 C 240.88 308.41 239.07 308.38 237.26 308.35 C 236.88 309.86 236.51 311.38 236.06 312.88 C 236.47 308.86 235.78 304.85 235.87 300.84 Z" />
</g>
<g id="#5f747cff">
<path fill="#5f747c" opacity="1.00" d=" M 355.81 294.00 C 357.14 294.46 358.48 294.93 359.83 295.40 C 359.46 300.27 360.95 304.78 362.21 309.37 C 360.93 309.34 359.66 309.26 358.39 309.35 C 356.84 310.07 357.24 311.99 356.88 313.36 C 357.38 313.43 358.37 313.57 358.87 313.64 C 358.92 314.65 358.98 315.66 359.06 316.68 C 358.13 316.14 357.20 315.61 356.29 315.08 C 355.59 319.26 357.12 324.50 353.55 327.66 C 351.44 330.66 349.42 333.90 345.80 335.26 C 345.65 334.73 345.36 333.67 345.21 333.14 C 343.58 333.42 341.95 333.66 340.32 333.95 C 339.88 333.62 339.00 332.95 338.57 332.62 C 334.18 334.33 329.34 334.43 324.85 333.09 C 322.72 331.81 320.56 330.61 318.41 329.38 C 316.93 328.44 315.44 327.49 313.82 326.81 C 321.00 327.15 328.22 325.69 334.78 322.79 C 345.71 317.07 353.69 306.17 355.81 294.00 Z" />
</g>
<g id="#667a82ff">
<path fill="#667a82" opacity="1.00" d=" M 96.85 306.89 C 98.61 305.04 100.29 303.08 101.49 300.81 C 101.65 305.75 101.62 310.83 103.28 315.54 C 104.24 318.34 106.31 320.51 107.81 323.01 C 104.58 324.34 101.63 326.23 99.40 328.96 C 96.95 327.72 94.65 326.22 92.12 325.17 C 87.64 323.41 82.75 323.65 78.03 323.58 C 78.82 321.91 79.61 320.24 80.39 318.57 C 81.33 318.83 82.27 319.09 83.20 319.36 C 85.69 318.12 88.31 317.10 90.62 315.53 C 93.41 313.22 94.41 309.50 96.85 306.89 Z" />
</g>
<g id="#d1d3ceff">
<path fill="#d1d3ce" opacity="1.00" d=" M 242.69 308.46 C 243.06 306.89 243.43 305.32 243.75 303.75 C 243.70 307.74 245.12 312.72 241.75 315.79 C 238.79 318.24 234.61 320.31 230.82 318.51 C 232.92 317.03 235.03 315.31 236.06 312.88 C 236.51 311.38 236.88 309.86 237.26 308.35 C 239.07 308.38 240.88 308.41 242.69 308.46 Z" />
</g>
<g id="#eae3daff">
<path fill="#eae3da" opacity="1.00" d=" M 164.77 304.58 C 167.13 305.20 169.52 305.71 171.92 306.23 C 169.79 308.45 167.31 310.32 165.45 312.79 C 164.41 312.10 163.38 311.40 162.35 310.72 C 163.15 308.66 163.97 306.62 164.77 304.58 Z" />
</g>
<g id="#dad5cbff">
<path fill="#dad5cb" opacity="1.00" d=" M 278.34 308.08 C 279.96 310.22 283.06 310.85 284.40 313.05 C 283.94 317.89 278.32 320.55 273.97 320.33 C 273.55 319.85 272.73 318.91 272.31 318.44 C 276.32 316.82 279.61 312.56 278.34 308.08 Z" />
</g>
<g id="#eee5d8ff">
<path fill="#eee5d8" opacity="1.00" d=" M 215.49 310.56 C 216.58 310.90 217.67 311.24 218.77 311.55 C 219.45 312.95 220.21 314.31 221.14 315.56 C 218.36 320.64 212.18 320.59 207.14 321.08 C 207.31 320.40 207.66 319.05 207.84 318.37 C 210.08 317.27 211.69 315.31 213.23 313.40 C 214.00 312.47 214.73 311.50 215.49 310.56 Z" />
</g>
<g id="#4c6b77ff">
<path fill="#4c6b77" opacity="1.00" d=" M 244.56 314.67 C 245.11 313.41 245.67 311.21 247.48 312.30 C 251.53 315.97 254.42 320.86 259.02 323.96 C 259.93 324.79 261.38 325.25 261.76 326.54 C 260.58 327.28 259.35 327.92 258.12 328.57 C 253.43 324.71 247.35 322.99 241.33 323.29 C 241.63 320.17 243.53 317.56 244.56 314.67 Z" />
</g>
<g id="#647c86ff">
<path fill="#647c86" opacity="1.00" d=" M 165.13 323.16 C 167.97 320.02 169.42 315.93 171.69 312.41 C 176.48 312.75 181.28 312.43 186.07 312.41 C 188.33 316.40 190.88 320.18 194.02 323.53 C 191.05 324.40 188.96 326.66 187.09 329.00 C 184.28 325.71 180.25 323.48 175.87 323.41 C 169.58 323.15 162.52 323.77 157.70 328.28 C 157.21 328.07 156.72 327.88 156.21 327.72 C 159.58 327.24 162.31 324.89 165.13 323.16 Z" />
</g>
<g id="#5c7079ff">
<path fill="#5c7079" opacity="1.00" d=" M 283.48 323.35 C 285.48 321.73 287.06 319.61 289.21 318.19 C 293.59 321.03 298.01 323.90 303.16 325.17 C 302.99 325.50 302.65 326.18 302.48 326.51 C 304.30 327.86 306.20 329.10 308.09 330.35 C 303.50 332.22 300.33 336.09 296.69 339.26 C 296.52 338.44 296.17 336.81 296.00 335.99 C 294.88 329.64 288.75 326.03 283.48 323.35 Z" />
</g>
<g id="#496977ff">
<path fill="#496977" opacity="1.00" d=" M 26.45 321.22 C 38.14 327.29 52.16 329.02 64.69 324.52 C 65.62 324.71 67.49 325.07 68.42 325.25 C 65.34 328.62 62.25 332.47 62.24 337.28 C 59.88 334.71 57.57 331.77 54.03 330.83 C 48.58 328.41 42.39 329.83 37.46 332.79 C 34.13 328.62 29.67 325.50 26.45 321.22 Z" />
</g>
<g id="#455e65ff">
<path fill="#455e65" opacity="1.00" d=" M 302.48 326.51 C 302.65 326.18 302.99 325.50 303.16 325.17 C 306.63 326.17 310.21 326.72 313.82 326.81 C 315.44 327.49 316.93 328.44 318.41 329.38 C 314.95 329.24 311.39 329.14 308.09 330.35 C 306.20 329.10 304.30 327.86 302.48 326.51 Z" />
</g>
<g id="#fdfbf2ff">
<path fill="#fdfbf2" opacity="1.00" d=" M 194.72 331.35 C 195.59 330.38 196.48 329.41 197.38 328.47 C 202.04 331.98 208.45 329.22 213.66 331.31 L 213.61 332.37 C 213.32 337.92 213.43 343.48 213.47 349.04 C 213.82 352.69 209.31 355.66 206.05 354.02 C 203.96 352.79 202.53 350.48 202.66 348.03 C 202.56 342.78 202.56 337.52 202.60 332.27 C 200.27 331.99 197.93 331.84 195.61 331.50 L 194.72 331.35 Z" />
</g>
<g id="#051a20ff">
<path fill="#051a20" opacity="1.00" d=" M 109.67 331.76 C 112.29 331.73 114.98 331.49 117.48 332.46 C 117.58 341.48 117.71 350.51 117.42 359.53 C 117.38 360.21 117.30 361.57 117.26 362.25 C 114.75 363.31 112.03 363.49 109.47 362.49 C 108.32 357.39 108.76 352.14 108.72 346.97 C 108.79 341.89 108.56 336.75 109.67 331.76 Z" />
</g>
<g id="#06161eff">
<path fill="#06161e" opacity="1.00" d=" M 213.61 332.37 C 216.22 332.22 218.81 331.87 221.42 331.67 C 221.76 338.48 221.47 345.32 221.51 352.15 C 220.32 359.74 212.24 364.38 204.90 363.34 C 197.78 361.77 193.74 353.81 194.69 346.96 C 195.15 341.81 194.18 336.54 195.61 331.50 C 197.93 331.84 200.27 331.99 202.60 332.27 C 202.56 337.52 202.56 342.78 202.66 348.03 C 202.53 350.48 203.96 352.79 206.05 354.02 C 209.31 355.66 213.82 352.69 213.47 349.04 C 213.43 343.48 213.32 337.92 213.61 332.37 Z" />
</g>
<g id="#05131aff">
<path fill="#05131a" opacity="1.00" d=" M 230.63 341.02 C 231.44 335.58 236.53 331.46 241.95 331.39 C 246.28 331.18 250.95 332.86 253.96 335.99 C 253.59 338.21 251.12 339.38 249.84 341.13 C 246.53 339.74 242.96 337.40 239.40 339.62 C 239.41 340.07 239.44 340.96 239.45 341.41 C 243.30 343.11 247.31 344.41 251.25 345.91 L 251.16 346.22 C 250.61 348.30 250.09 350.39 249.63 352.50 C 248.77 352.50 247.92 352.49 247.07 352.49 C 242.42 350.13 236.41 350.17 232.83 346.01 C 231.49 344.67 231.18 342.74 230.63 341.02 Z" />
</g>
<g id="#07171cff">
<path fill="#07171c" opacity="1.00" d=" M 72.46 332.38 C 80.57 331.32 90.78 330.48 96.60 337.47 C 102.96 344.70 100.10 357.27 91.60 361.49 C 85.60 363.84 79.02 363.31 72.71 363.33 C 71.79 354.25 72.96 345.02 71.78 336.00 C 72.04 334.79 72.27 333.59 72.46 332.38 M 80.36 354.70 C 83.20 354.66 86.47 354.86 88.61 352.63 C 92.15 349.93 91.86 344.24 88.62 341.43 C 86.59 339.02 83.14 339.85 80.39 339.46 C 80.61 344.53 80.58 349.62 80.36 354.70 Z" />
</g>
<g id="#fcfaf1ff">
<path fill="#fcfaf1" opacity="1.00" d=" M 117.48 332.46 C 119.35 333.16 121.30 333.67 123.31 333.73 C 124.53 335.23 125.61 336.83 126.61 338.49 C 126.75 340.69 126.17 343.32 127.97 345.02 C 131.83 349.52 138.12 349.69 143.06 352.36 C 142.16 353.82 141.17 355.95 139.04 355.45 C 135.76 354.89 132.94 352.98 130.02 351.50 C 128.58 353.66 125.31 355.52 126.63 358.49 C 125.60 359.44 124.45 360.24 123.17 360.84 C 121.63 359.25 119.45 359.33 117.42 359.53 C 117.71 350.51 117.58 341.48 117.48 332.46 Z" />
</g>
<g id="#031017ff">
<path fill="#031017" opacity="1.00" d=" M 126.61 338.49 C 128.59 334.06 133.24 331.24 138.06 331.26 C 142.87 330.58 146.97 333.60 150.85 335.96 C 149.35 337.80 147.53 339.35 145.90 341.06 C 142.77 339.37 139.39 338.01 135.75 338.57 C 135.57 339.55 135.38 340.53 135.21 341.52 C 140.36 344.19 148.07 344.15 150.79 350.01 C 150.03 351.42 149.22 352.82 148.41 354.20 C 147.59 353.38 146.77 352.58 145.95 351.77 C 144.99 351.96 144.03 352.18 143.06 352.36 C 138.12 349.69 131.83 349.52 127.97 345.02 C 126.17 343.32 126.75 340.69 126.61 338.49 Z" />
</g>
<g id="#08171dff">
<path fill="#08171d" opacity="1.00" d=" M 159.70 340.74 C 162.49 334.67 169.30 330.57 175.99 331.63 C 180.20 332.48 183.96 334.86 186.89 337.97 C 185.20 339.61 183.51 341.26 181.90 343.00 C 179.04 339.71 173.88 338.03 170.18 340.96 C 165.10 344.28 167.15 353.39 173.11 354.43 C 176.47 355.45 179.54 353.66 181.88 351.41 C 183.85 352.94 185.79 354.51 187.74 356.07 C 184.76 359.72 180.76 362.59 176.00 363.23 C 174.64 363.24 173.29 363.25 171.94 363.26 C 162.97 362.19 156.83 352.68 158.78 344.00 C 159.11 342.91 159.42 341.83 159.70 340.74 Z" />
</g>
<g id="#05141cff">
<path fill="#05141c" opacity="1.00" d=" M 264.20 344.01 C 261.92 338.57 266.57 332.75 271.93 331.67 C 277.63 330.42 283.15 332.59 287.64 336.02 C 286.08 337.80 284.54 339.60 283.05 341.43 C 280.22 339.90 277.21 338.07 273.86 338.59 C 272.20 338.71 272.25 340.43 272.06 341.64 C 277.15 343.91 283.74 344.17 287.17 349.13 C 288.32 352.49 288.00 356.70 285.36 359.31 C 279.79 365.48 268.86 364.23 263.74 358.08 C 261.85 355.64 265.23 353.25 267.04 352.00 C 270.19 353.68 273.50 355.76 277.26 355.38 C 278.60 354.95 280.38 353.50 279.05 352.01 C 274.07 349.56 266.49 350.14 264.20 344.01 Z" />
</g>
<g id="#592f40ff">
<path fill="#592f40" opacity="1.00" d=" M 305.78 349.66 C 304.56 344.16 308.31 338.40 313.97 337.75 C 316.45 338.39 319.07 339.19 320.61 341.42 C 324.49 345.45 322.69 352.77 317.55 354.85 C 318.17 351.84 319.83 349.11 320.17 346.05 C 320.40 341.47 314.43 337.91 310.64 340.58 C 308.17 343.06 307.34 346.62 305.78 349.66 Z" />
</g>
<g id="#903446ff">
<path fill="#903446" opacity="1.00" d=" M 40.42 348.00 C 40.39 344.78 41.72 340.89 44.93 339.58 C 47.70 339.05 50.51 339.80 53.25 340.26 C 57.65 343.04 57.60 350.34 53.57 353.58 C 51.08 356.65 46.59 355.88 43.38 354.52 C 43.35 354.36 43.28 354.06 43.25 353.91 C 43.18 353.56 43.03 352.87 42.96 352.52 C 42.11 351.01 41.06 349.61 40.42 348.00 M 45.18 341.17 C 43.07 342.30 42.27 344.84 42.12 347.09 C 42.57 349.78 45.66 350.71 47.98 351.10 C 50.96 351.94 52.65 348.38 52.50 345.93 C 52.83 342.27 48.41 339.27 45.18 341.17 Z" />
</g>
<g id="#faf9f5ff">
<path fill="#faf9f5" opacity="1.00" d=" M 80.36 354.70 C 80.58 349.62 80.61 344.53 80.39 339.46 C 83.14 339.85 86.59 339.02 88.62 341.43 C 91.86 344.24 92.15 349.93 88.61 352.63 C 86.47 354.86 83.20 354.66 80.36 354.70 Z" />
</g>
<g id="#912f3fff">
<path fill="#912f3f" opacity="1.00" d=" M 310.64 340.58 C 314.43 337.91 320.40 341.47 320.17 346.05 C 319.83 349.11 318.17 351.84 317.55 354.85 L 317.43 355.32 C 312.66 356.74 307.36 354.51 305.78 349.66 C 307.34 346.62 308.17 343.06 310.64 340.58 M 311.34 342.40 C 309.16 343.88 307.42 348.04 310.57 349.50 C 313.44 352.07 318.98 350.14 318.67 346.01 C 318.88 342.25 314.23 340.23 311.34 342.40 Z" />
</g>
<g id="#dc3448ff">
<path fill="#dc3448" opacity="1.00" d=" M 45.18 341.17 C 48.41 339.27 52.83 342.27 52.50 345.93 C 52.65 348.38 50.96 351.94 47.98 351.10 C 45.66 350.71 42.57 349.78 42.12 347.09 C 42.27 344.84 43.07 342.30 45.18 341.17 Z" />
</g>
<g id="#df324eff">
<path fill="#df324e" opacity="1.00" d=" M 311.34 342.40 C 314.23 340.23 318.88 342.25 318.67 346.01 C 318.98 350.14 313.44 352.07 310.57 349.50 C 307.42 348.04 309.16 343.88 311.34 342.40 Z" />
</g>
<g id="#637981ff">
<path fill="#637981" opacity="1.00" d=" M 331.32 342.38 C 333.51 342.63 335.69 342.95 337.90 343.03 L 338.19 343.04 C 339.30 346.46 343.14 348.00 344.39 351.39 C 346.93 356.68 344.72 362.83 341.45 367.27 C 335.13 374.86 322.31 376.32 314.77 369.78 C 313.65 368.81 312.50 367.88 311.37 366.93 C 310.98 368.12 310.58 369.32 310.17 370.52 C 305.30 380.54 292.21 385.10 281.87 381.29 C 278.80 380.21 276.16 378.06 273.00 377.30 C 269.97 376.54 267.68 379.05 264.89 379.60 C 261.01 380.78 256.92 380.53 252.94 380.19 C 246.64 379.52 240.31 377.36 233.94 378.74 C 229.73 379.91 225.31 379.36 221.04 380.16 C 212.98 381.60 204.63 376.00 196.92 379.85 C 188.78 382.83 180.18 380.80 172.03 379.08 L 171.41 378.48 C 170.25 377.32 168.99 376.27 167.72 375.26 C 166.47 377.13 165.22 379.02 163.96 380.89 L 163.29 381.89 C 162.52 381.53 160.99 380.81 160.22 380.45 C 156.47 380.72 152.71 382.18 148.95 381.23 C 137.13 378.73 124.99 379.72 113.01 379.32 C 109.60 379.52 106.28 380.43 102.95 381.15 C 98.01 381.91 92.94 382.06 87.98 381.38 C 83.05 380.21 78.66 377.35 74.95 374.00 C 73.87 373.15 73.28 371.91 72.89 370.64 C 76.61 370.55 80.28 371.37 83.99 371.26 C 90.46 370.62 97.16 368.74 101.88 363.99 C 105.52 371.60 117.89 372.79 122.97 366.09 C 128.02 370.02 134.58 372.18 140.97 371.21 C 146.63 370.21 152.87 368.76 156.27 363.65 C 161.08 368.08 167.19 371.81 173.95 371.51 C 180.26 371.04 186.62 368.65 191.12 364.10 C 194.39 367.32 198.39 369.90 202.98 370.67 C 208.86 372.13 214.88 370.29 220.31 368.05 C 223.66 369.24 227.24 369.24 230.60 368.09 C 239.47 373.59 251.55 371.69 258.79 364.36 C 266.05 371.70 278.49 373.44 287.56 368.54 C 293.70 365.17 296.77 357.97 296.58 351.17 C 297.87 353.56 299.21 355.95 301.03 357.99 C 308.66 367.23 325.74 364.30 330.26 353.30 C 331.86 349.89 331.55 346.03 331.32 342.38 M 201.33 376.35 C 200.25 378.31 203.51 378.65 204.64 377.87 C 205.37 376.14 202.34 375.00 201.33 376.35 Z" />
</g>
<g id="#061720ff">
<path fill="#061720" opacity="1.00" d=" M 251.16 346.22 C 255.64 347.91 256.38 354.06 253.69 357.60 C 251.11 361.97 245.77 363.61 240.94 363.25 C 239.57 362.84 238.19 362.53 236.79 362.30 C 233.94 361.11 231.58 359.11 229.49 356.88 C 230.98 355.19 232.54 353.55 234.06 351.89 C 237.03 353.13 239.82 355.00 243.05 355.43 C 245.08 355.84 246.27 354.01 247.07 352.49 C 247.92 352.49 248.77 352.50 249.63 352.50 C 250.09 350.39 250.61 348.30 251.16 346.22 Z" />
</g>
<g id="#08171fff">
<path fill="#08171f" opacity="1.00" d=" M 150.79 350.01 C 152.05 352.23 151.80 355.19 150.35 357.28 C 147.88 360.94 143.51 362.95 139.22 363.42 C 134.57 363.40 130.10 361.55 126.63 358.49 C 125.31 355.52 128.58 353.66 130.02 351.50 C 132.94 352.98 135.76 354.89 139.04 355.45 C 141.17 355.95 142.16 353.82 143.06 352.36 C 144.03 352.18 144.99 351.96 145.95 351.77 C 146.77 352.58 147.59 353.38 148.41 354.20 C 149.22 352.82 150.03 351.42 150.79 350.01 Z" />
</g>
<g id="#617b84ff">
<path fill="#617b84" opacity="1.00" d=" M 53.48 362.67 C 57.58 361.25 60.25 357.65 63.47 354.94 C 63.73 358.04 63.50 361.30 64.71 364.23 C 66.11 367.35 69.13 369.26 72.13 370.62 C 68.12 370.58 65.04 373.94 61.01 373.72 C 52.01 374.39 45.49 367.23 39.06 362.11 C 43.70 363.43 48.82 364.54 53.48 362.67 Z" />
</g>
<g id="#526f7aff">
<path fill="#526f7a" opacity="1.00" d=" M 220.31 368.05 C 221.93 366.82 223.47 365.48 225.00 364.15 C 226.86 365.47 228.70 366.83 230.60 368.09 C 227.24 369.24 223.66 369.24 220.31 368.05 Z" />
</g>
<g id="#9ea29ee5">
<path fill="#9ea29e" opacity="0.90" d=" M 201.33 376.35 C 202.34 375.00 205.37 376.14 204.64 377.87 C 203.51 378.65 200.25 378.31 201.33 376.35 Z" />
</g>
</svg>
