<?xml version="1.0" encoding="UTF-8" ?>
<!DOCTYPE svg PUBLIC "-//W3C//DTD SVG 1.1//EN" "http://www.w3.org/Graphics/SVG/1.1/DTD/svg11.dtd">
<svg width="380pt" height="157pt" viewBox="0 0 380 157" version="1.1" xmlns="http://www.w3.org/2000/svg">
<g id="#fcf5e7ff">
<path fill="#fcf5e7" opacity="1.00" d=" M 15.99 21.00 C 22.23 14.08 31.09 10.23 39.99 8.06 C 42.92 7.14 45.99 8.01 48.98 7.95 C 54.00 8.01 59.44 7.31 63.95 10.06 C 66.82 11.87 69.93 13.28 72.64 15.32 C 74.75 17.06 75.82 20.69 79.00 20.60 C 82.45 20.92 83.81 16.94 86.59 15.64 C 90.58 13.75 94.54 11.58 98.93 10.77 C 105.47 9.23 112.23 9.98 118.87 9.46 C 125.89 8.35 132.99 9.75 139.86 11.15 C 142.88 12.04 145.71 13.51 148.79 14.29 C 153.58 15.22 152.03 22.17 156.28 23.81 C 159.32 25.41 162.70 22.83 164.19 20.22 C 166.27 17.32 167.06 13.24 170.50 11.52 C 175.27 9.11 180.64 10.91 185.58 11.71 C 187.30 11.89 188.30 13.45 189.33 14.65 C 193.09 19.60 194.95 25.64 197.93 31.04 C 200.29 35.42 200.98 40.44 202.99 44.97 C 204.54 48.56 204.52 52.80 206.90 56.02 C 208.82 58.39 213.21 58.14 214.52 55.28 C 216.27 52.00 214.13 48.44 213.99 45.04 C 213.83 38.67 211.74 32.13 213.85 25.89 C 214.71 23.52 214.63 20.92 215.50 18.57 C 218.64 15.56 222.23 12.91 226.00 10.79 C 232.36 11.68 239.88 12.37 243.82 18.18 C 245.36 20.95 249.48 20.62 251.17 18.23 C 253.26 15.38 255.87 12.91 258.86 11.01 C 268.07 7.34 278.04 11.11 287.45 8.62 C 291.10 7.63 294.84 8.61 298.39 9.57 C 303.39 10.53 306.17 15.31 309.37 18.80 C 309.35 21.46 309.20 24.12 309.09 26.78 C 306.48 25.74 303.86 24.74 301.23 23.77 C 300.28 21.29 298.94 18.74 296.48 17.48 C 292.93 15.64 288.01 16.21 285.45 19.47 C 283.22 21.68 282.58 24.91 282.72 27.94 C 282.83 36.64 282.85 45.33 282.73 54.02 C 282.35 65.52 287.18 77.51 296.52 84.51 C 309.32 93.63 328.79 92.29 339.46 80.43 C 344.88 73.93 347.91 65.49 348.07 57.03 C 348.32 46.99 348.35 36.94 348.17 26.90 C 348.34 22.37 345.11 18.22 340.89 16.80 C 335.35 15.08 329.44 20.36 329.63 25.93 C 329.38 37.21 329.93 48.50 329.38 59.77 C 328.95 66.56 322.87 72.55 316.00 72.47 C 311.43 72.70 307.42 69.99 304.13 67.12 C 305.71 64.57 307.62 62.24 309.90 60.29 C 311.72 62.85 315.46 64.33 318.10 62.06 C 321.39 59.26 319.64 54.68 319.85 51.01 C 320.53 44.70 319.63 38.33 320.55 32.05 C 321.31 26.06 321.05 19.27 325.56 14.62 C 328.14 13.22 331.23 12.61 333.32 10.40 C 335.40 7.89 339.08 8.36 342.01 8.34 C 347.77 10.59 353.01 14.66 356.06 20.08 C 357.53 27.97 356.52 36.03 357.03 43.99 C 357.47 56.08 356.99 68.98 350.69 79.68 C 345.89 87.47 338.59 94.10 329.68 96.69 C 324.88 98.24 319.83 98.87 314.80 98.94 C 311.56 98.67 308.33 98.31 305.12 97.81 C 299.27 96.23 293.83 93.47 288.90 89.97 C 287.31 91.80 285.70 93.62 284.09 95.43 C 288.76 98.44 294.39 101.46 295.93 107.26 C 297.25 110.66 294.94 113.85 293.57 116.82 C 293.73 117.07 294.05 117.56 294.21 117.81 C 296.51 111.13 301.38 105.47 307.81 102.47 C 311.36 101.31 315.13 101.17 318.84 101.35 C 323.30 103.93 327.95 106.98 330.07 111.91 C 333.59 119.15 330.77 128.68 323.79 132.74 C 317.20 136.50 307.54 136.84 302.05 130.98 C 300.01 128.89 298.43 126.44 296.80 124.05 C 295.95 129.72 294.36 135.91 289.36 139.36 C 280.22 145.89 267.01 143.82 258.77 136.74 C 253.95 140.47 248.23 143.40 241.99 143.37 C 235.61 143.48 230.12 139.74 225.07 136.29 C 219.01 141.73 210.40 144.45 202.37 142.56 C 198.11 141.69 194.51 139.10 191.21 136.41 C 185.76 140.70 179.05 143.89 171.96 143.46 C 166.00 143.15 161.00 139.52 156.42 136.06 C 151.40 141.25 144.05 143.49 136.97 143.40 C 131.94 143.32 127.38 140.97 123.13 138.52 C 119.98 141.00 116.14 142.99 111.99 142.33 C 107.72 142.27 104.27 139.55 101.63 136.46 C 98.66 138.67 95.51 140.74 91.91 141.76 C 85.67 143.83 79.03 142.91 72.58 143.09 C 72.30 142.96 71.73 142.71 71.44 142.58 C 68.86 140.98 66.15 139.13 64.84 136.30 C 63.79 133.41 63.65 130.31 63.19 127.30 C 59.99 130.14 56.98 133.54 52.78 134.90 C 48.68 136.21 44.29 135.46 40.15 134.77 C 34.71 131.04 29.81 124.96 30.28 117.99 C 29.94 112.63 33.51 107.96 37.46 104.76 C 39.19 103.70 40.99 102.71 42.96 102.16 C 50.01 100.29 57.65 103.22 61.96 109.02 C 63.45 104.01 65.70 97.88 71.20 96.21 C 80.63 94.72 91.08 94.99 99.10 100.82 C 101.71 98.64 104.37 96.53 107.05 94.43 C 104.70 90.67 102.46 86.69 101.95 82.21 C 100.98 74.01 101.95 65.67 100.51 57.51 C 100.16 55.36 99.00 53.49 97.95 51.64 C 94.68 57.98 95.23 65.52 91.82 71.84 C 84.14 89.42 64.75 100.51 45.74 98.98 C 37.94 98.23 30.31 95.75 23.91 91.17 C 13.44 84.16 6.36 72.81 3.61 60.62 C 0.64 46.39 6.30 31.45 15.99 21.00 M 45.28 15.76 C 23.32 16.90 6.44 40.86 12.22 61.92 C 17.00 80.77 37.60 94.13 56.74 89.88 C 74.00 86.48 86.90 69.39 86.56 52.00 C 86.99 42.55 82.46 33.57 76.40 26.59 C 68.35 18.56 56.62 14.23 45.28 15.76 M 167.69 23.75 C 159.96 42.29 152.26 60.85 144.20 79.26 C 141.01 85.46 148.29 92.82 154.63 90.47 C 161.10 88.84 162.60 81.64 165.05 76.39 C 173.70 76.28 182.36 76.07 191.01 75.81 C 192.95 77.01 193.28 79.64 194.36 81.53 C 196.21 85.93 199.75 90.67 205.00 90.69 C 208.84 90.99 212.09 87.87 213.29 84.45 C 214.07 81.17 211.77 78.32 210.64 75.42 C 203.82 59.00 196.07 42.99 189.38 26.51 C 187.37 21.75 183.90 16.01 177.97 16.35 C 173.13 15.58 169.34 19.65 167.69 23.75 M 261.53 18.51 C 255.38 24.58 249.78 31.19 243.74 37.36 C 243.02 33.29 242.86 29.15 242.89 25.03 C 240.64 24.01 238.37 23.04 236.09 22.12 C 234.79 19.30 232.23 16.73 229.02 16.43 C 223.29 15.55 217.58 21.22 218.23 26.94 C 218.42 44.94 218.10 62.95 218.44 80.95 C 218.39 87.86 225.86 92.00 232.09 90.29 C 236.22 89.06 241.62 88.00 243.29 83.42 C 244.12 78.80 243.98 74.06 244.88 69.44 C 245.49 69.43 246.71 69.41 247.33 69.40 C 252.66 74.90 257.03 81.22 261.94 87.07 C 264.23 89.97 267.98 91.35 271.61 90.74 C 276.60 94.42 283.24 90.63 284.71 85.17 C 282.62 83.52 280.54 81.87 278.46 80.22 C 271.60 71.96 265.36 63.21 258.38 55.05 C 261.14 53.00 263.88 50.89 266.32 48.45 C 270.67 42.76 276.08 37.98 280.22 32.13 C 278.69 30.50 277.18 28.85 275.71 27.18 C 279.31 23.72 275.71 18.69 272.33 16.72 C 268.77 15.86 264.28 15.64 261.53 18.51 M 90.10 20.11 C 85.24 24.73 88.11 34.47 94.94 35.12 C 100.10 35.20 105.25 34.52 110.42 34.70 C 110.23 49.82 110.25 64.95 110.30 80.07 C 109.57 86.33 115.80 91.69 121.89 90.55 C 125.72 93.51 131.89 94.41 135.29 90.34 C 136.96 86.87 136.24 82.76 136.38 79.02 C 136.08 67.32 136.26 55.62 136.07 43.92 C 136.28 42.20 135.81 39.65 137.78 38.81 C 142.08 37.18 146.93 37.94 151.17 36.12 C 154.04 34.70 155.51 31.68 155.94 28.63 C 153.28 27.40 151.16 25.42 149.25 23.24 C 147.58 19.36 143.42 16.45 139.06 17.18 C 126.71 17.70 114.35 17.30 101.99 17.57 C 97.98 17.77 93.06 16.56 90.10 20.11 M 246.21 83.02 C 244.44 86.96 242.65 90.89 241.04 94.90 C 247.09 95.27 253.09 96.74 258.13 100.24 C 259.43 99.71 260.72 99.18 262.02 98.65 C 256.11 94.10 251.44 88.28 246.21 83.02 M 164.97 95.96 C 169.61 95.54 174.33 94.91 178.95 95.84 C 182.13 96.54 184.67 98.68 187.13 100.69 C 189.16 98.65 191.38 96.81 193.76 95.18 C 190.75 91.94 188.35 88.23 186.02 84.49 C 181.35 84.57 176.66 84.32 171.99 84.70 C 169.09 88.06 167.44 92.28 164.97 95.96 M 109.52 103.72 C 108.96 107.78 108.69 111.87 108.73 115.97 C 108.79 122.16 108.28 128.41 109.42 134.53 C 111.95 134.99 114.93 135.92 117.11 134.01 C 118.05 124.17 117.43 114.22 117.45 104.34 C 114.84 103.82 112.18 103.68 109.52 103.72 M 128.10 108.01 C 125.85 110.92 125.93 115.71 128.99 118.04 C 132.92 121.62 138.49 121.86 143.02 124.30 C 142.38 125.36 141.77 126.44 140.95 127.37 C 136.91 127.93 133.52 125.17 130.05 123.57 C 128.84 125.54 125.93 127.03 126.32 129.61 C 131.31 136.00 141.65 137.31 147.90 131.94 C 151.92 129.23 152.91 123.13 149.31 119.64 C 145.35 116.34 140.03 115.56 135.37 113.64 C 135.38 112.96 135.40 111.60 135.41 110.91 C 139.10 109.75 142.66 111.44 145.89 113.07 C 147.59 111.35 149.29 109.65 151.00 107.95 C 147.21 105.98 143.54 102.82 139.00 103.21 C 134.91 103.11 130.61 104.68 128.10 108.01 M 231.37 115.64 C 233.96 121.96 241.80 121.83 247.10 124.55 C 246.03 125.88 245.10 127.94 243.01 127.43 C 239.83 126.91 236.99 125.22 234.11 123.86 C 232.78 125.31 231.33 126.66 230.14 128.24 C 229.86 130.11 231.76 131.06 232.95 132.11 C 238.53 136.21 247.38 136.66 252.35 131.35 C 255.38 128.32 256.56 122.95 253.32 119.64 C 249.15 116.24 243.55 115.57 238.88 113.07 C 241.37 108.61 246.47 111.60 249.80 113.19 C 251.41 111.46 253.06 109.78 254.72 108.10 C 250.99 105.53 246.76 102.96 242.03 103.37 C 235.86 103.37 229.35 109.08 231.37 115.64 M 264.21 110.24 C 262.58 113.38 264.17 117.16 266.57 119.41 C 270.65 122.17 275.96 122.11 280.06 124.88 C 276.93 129.93 270.53 126.20 266.94 123.62 C 265.59 125.33 263.44 126.63 262.99 128.89 C 267.63 136.38 280.16 137.87 285.82 130.78 C 288.05 128.28 288.09 124.61 287.37 121.51 C 284.23 116.17 277.31 116.15 272.31 113.59 C 271.53 112.24 272.60 110.78 274.02 110.56 C 277.31 110.14 280.23 112.05 283.12 113.29 C 284.60 111.51 286.09 109.75 287.58 107.98 C 284.07 105.78 280.36 103.07 276.00 103.40 C 271.26 103.22 265.70 105.30 264.21 110.24 M 72.26 104.40 C 72.22 114.65 72.22 124.92 72.60 135.17 C 78.71 135.48 85.05 135.76 90.91 133.74 C 100.22 129.90 103.23 116.14 96.09 108.92 C 90.11 102.41 80.22 103.40 72.26 104.40 M 159.01 115.28 C 156.71 123.30 161.72 132.93 170.05 134.76 C 176.66 136.69 183.65 133.35 187.73 128.12 C 185.82 126.56 183.91 125.00 181.98 123.48 C 179.23 125.86 175.46 127.78 171.86 126.01 C 166.22 123.94 165.60 114.60 171.34 112.25 C 175.06 110.19 179.17 112.26 181.90 114.95 C 183.54 113.25 185.22 111.60 186.89 109.93 C 183.90 106.89 180.19 104.48 175.98 103.62 C 168.49 102.46 160.53 107.79 159.01 115.28 M 195.29 103.94 C 194.62 110.28 194.80 116.67 194.66 123.03 C 195.46 128.15 198.64 133.71 204.05 134.98 C 211.35 136.92 219.75 132.22 221.44 124.77 C 221.68 117.80 221.49 110.82 221.58 103.86 C 218.89 103.85 216.22 104.18 213.55 104.43 C 213.43 109.97 213.39 115.51 213.48 121.05 C 213.78 123.69 211.40 125.98 208.94 126.42 C 205.39 127.08 202.47 123.36 202.65 120.05 C 202.56 114.77 202.56 109.49 202.54 104.21 C 200.14 103.90 197.71 103.78 195.29 103.94 M 44.32 110.21 C 39.24 112.49 37.18 119.80 40.90 124.14 C 44.20 128.61 52.02 129.21 54.96 124.02 C 60.27 117.46 51.99 106.57 44.32 110.21 M 311.39 110.46 C 305.72 112.44 303.48 120.85 307.94 125.10 C 310.24 127.67 314.08 128.22 317.25 127.19 C 320.27 125.64 322.91 122.59 322.68 119.00 C 322.97 113.35 316.82 108.61 311.39 110.46 Z" />
</g>
<g id="#7a78707b">
<path fill="#7a7870" opacity="0.48" d=" M 203.17 11.17 C 203.73 11.74 203.73 11.74 203.17 11.17 Z" />
</g>
<g id="#0e1c22ff">
<path fill="#0e1c22" opacity="1.00" d=" M 45.28 15.76 C 56.62 14.23 68.35 18.56 76.40 26.59 C 82.46 33.57 86.99 42.55 86.56 52.00 C 86.90 69.39 74.00 86.48 56.74 89.88 C 37.60 94.13 17.00 80.77 12.22 61.92 C 6.44 40.86 23.32 16.90 45.28 15.76 M 35.86 36.88 C 26.60 43.63 25.28 59.26 34.36 66.72 C 41.59 75.36 56.23 74.79 63.33 66.31 C 67.73 60.75 70.24 53.06 67.78 46.14 C 66.19 40.89 61.90 36.86 57.01 34.61 C 50.27 30.99 41.72 32.03 35.86 36.88 Z" />
<path fill="#0e1c22" opacity="1.00" d=" M 167.69 23.75 C 169.34 19.65 173.13 15.58 177.97 16.35 C 183.90 16.01 187.37 21.75 189.38 26.51 C 196.07 42.99 203.82 59.00 210.64 75.42 C 211.77 78.32 214.07 81.17 213.29 84.45 C 212.09 87.87 208.84 90.99 205.00 90.69 C 199.75 90.67 196.21 85.93 194.36 81.53 C 193.28 79.64 192.95 77.01 191.01 75.81 C 182.36 76.07 173.70 76.28 165.05 76.39 C 162.60 81.64 161.10 88.84 154.63 90.47 C 148.29 92.82 141.01 85.46 144.20 79.26 C 152.26 60.85 159.96 42.29 167.69 23.75 M 177.74 43.83 C 175.74 49.09 173.81 54.38 171.35 59.46 C 175.92 59.67 180.50 59.65 185.07 59.60 C 182.74 54.30 180.84 48.76 177.74 43.83 Z" />
</g>
<g id="#0e1b20ff">
<path fill="#0e1b20" opacity="1.00" d=" M 261.53 18.51 C 264.28 15.64 268.77 15.86 272.33 16.72 C 275.71 18.69 279.31 23.72 275.71 27.18 C 270.86 32.97 265.89 38.65 260.56 44.00 C 258.53 46.19 256.63 48.49 254.77 50.81 C 255.97 52.22 257.17 53.64 258.38 55.05 C 265.36 63.21 271.60 71.96 278.46 80.22 C 279.47 85.03 275.87 89.14 271.61 90.74 C 267.98 91.35 264.23 89.97 261.94 87.07 C 257.03 81.22 252.66 74.90 247.33 69.40 C 245.92 67.91 244.48 66.46 243.04 65.01 C 240.78 67.41 238.05 69.48 236.38 72.36 C 235.80 76.46 236.64 80.68 235.68 84.75 C 234.92 86.84 233.34 88.49 232.09 90.29 C 225.86 92.00 218.39 87.86 218.44 80.95 C 218.10 62.95 218.42 44.94 218.23 26.94 C 217.58 21.22 223.29 15.55 229.02 16.43 C 232.23 16.73 234.79 19.30 236.09 22.12 C 236.69 30.20 235.62 38.28 235.81 46.37 C 238.49 43.40 241.01 40.28 243.74 37.36 C 249.78 31.19 255.38 24.58 261.53 18.51 Z" />
</g>
<g id="#0b1a21ff">
<path fill="#0b1a21" opacity="1.00" d=" M 90.10 20.11 C 93.06 16.56 97.98 17.77 101.99 17.57 C 114.35 17.30 126.71 17.70 139.06 17.18 C 143.42 16.45 147.58 19.36 149.25 23.24 C 150.06 27.71 148.31 33.03 143.52 34.27 C 138.45 35.07 133.27 34.56 128.16 34.78 C 128.41 49.19 128.07 63.61 128.41 78.02 C 128.41 79.99 128.53 81.99 128.14 83.94 C 127.31 87.05 124.45 88.93 121.89 90.55 C 115.80 91.69 109.57 86.33 110.30 80.07 C 110.25 64.95 110.23 49.82 110.42 34.70 C 105.25 34.52 100.10 35.20 94.94 35.12 C 88.11 34.47 85.24 24.73 90.10 20.11 Z" />
</g>
<g id="#0c1a20ff">
<path fill="#0c1a20" opacity="1.00" d=" M 285.45 19.47 C 288.01 16.21 292.93 15.64 296.48 17.48 C 298.94 18.74 300.28 21.29 301.23 23.77 C 301.22 34.81 301.11 45.85 301.26 56.89 C 301.26 60.49 302.26 64.05 304.13 67.12 C 307.42 69.99 311.43 72.70 316.00 72.47 C 322.87 72.55 328.95 66.56 329.38 59.77 C 329.93 48.50 329.38 37.21 329.63 25.93 C 329.44 20.36 335.35 15.08 340.89 16.80 C 345.11 18.22 348.34 22.37 348.17 26.90 C 348.35 36.94 348.32 46.99 348.07 57.03 C 347.91 65.49 344.88 73.93 339.46 80.43 C 328.79 92.29 309.32 93.63 296.52 84.51 C 287.18 77.51 282.35 65.52 282.73 54.02 C 282.85 45.33 282.83 36.64 282.72 27.94 C 282.58 24.91 283.22 21.68 285.45 19.47 Z" />
</g>
<g id="#d1cfccff">
<path fill="#d1cfcc" opacity="1.00" d=" M 309.37 18.80 C 310.74 32.59 309.05 46.49 309.90 60.29 C 307.62 62.24 305.71 64.57 304.13 67.12 C 302.26 64.05 301.26 60.49 301.26 56.89 C 301.11 45.85 301.22 34.81 301.23 23.77 C 303.86 24.74 306.48 25.74 309.09 26.78 C 309.20 24.12 309.35 21.46 309.37 18.80 Z" />
</g>
<g id="#637880ff">
<path fill="#637880" opacity="1.00" d=" M 356.06 20.08 C 359.44 22.48 363.15 24.41 366.26 27.19 C 365.01 28.61 363.77 30.04 362.53 31.47 C 364.80 34.16 367.48 36.54 369.40 39.51 C 371.22 46.01 369.79 52.87 368.34 59.31 C 366.39 67.32 369.91 75.64 367.47 83.59 C 365.73 89.02 363.64 94.50 360.01 98.97 C 358.82 100.57 357.49 102.11 356.73 103.98 C 356.32 106.01 357.09 108.05 357.45 110.04 C 351.14 112.52 344.39 113.36 337.91 115.20 C 340.65 118.93 344.92 121.99 345.43 126.93 C 345.93 133.97 341.72 141.20 335.18 144.02 C 328.67 147.05 320.06 146.64 314.60 141.64 C 313.87 140.91 313.25 140.05 312.35 139.52 C 311.07 138.99 311.02 140.83 310.84 141.60 C 307.09 149.72 297.91 155.05 288.96 154.61 C 283.66 154.61 278.99 151.88 274.33 149.72 C 270.62 148.05 267.23 151.21 263.69 151.87 C 252.79 154.42 241.88 148.04 230.99 151.24 C 223.48 151.69 215.56 152.87 208.25 150.70 C 206.27 149.88 204.32 149.00 202.38 148.13 C 201.21 148.95 200.04 149.78 198.86 150.58 C 195.16 153.26 190.35 153.28 185.97 153.39 C 179.50 153.46 173.45 150.29 166.99 150.50 C 165.50 151.26 164.29 152.43 163.00 153.46 C 158.19 151.31 153.12 154.58 148.19 153.12 C 137.26 150.74 126.04 151.73 114.96 151.33 C 109.20 151.05 103.78 153.51 98.06 153.70 C 93.53 153.81 88.75 154.18 84.50 152.30 C 79.86 150.27 75.57 147.23 72.58 143.09 C 79.03 142.91 85.67 143.83 91.91 141.76 C 95.51 140.74 98.66 138.67 101.63 136.46 C 104.27 139.55 107.72 142.27 111.99 142.33 C 116.14 142.99 119.98 141.00 123.13 138.52 C 127.38 140.97 131.94 143.32 136.97 143.40 C 144.05 143.49 151.40 141.25 156.42 136.06 C 161.00 139.52 166.00 143.15 171.96 143.46 C 179.05 143.89 185.76 140.70 191.21 136.41 C 194.51 139.10 198.11 141.69 202.37 142.56 C 210.40 144.45 219.01 141.73 225.07 136.29 C 230.12 139.74 235.61 143.48 241.99 143.37 C 248.23 143.40 253.95 140.47 258.77 136.74 C 267.01 143.82 280.22 145.89 289.36 139.36 C 294.36 135.91 295.95 129.72 296.80 124.05 C 298.43 126.44 300.01 128.89 302.05 130.98 C 307.54 136.84 317.20 136.50 323.79 132.74 C 330.77 128.68 333.59 119.15 330.07 111.91 C 327.95 106.98 323.30 103.93 318.84 101.35 C 317.49 100.54 316.16 99.71 314.80 98.94 C 319.83 98.87 324.88 98.24 329.68 96.69 C 338.59 94.10 345.89 87.47 350.69 79.68 C 356.99 68.98 357.47 56.08 357.03 43.99 C 356.52 36.03 357.53 27.97 356.06 20.08 M 167.34 148.46 C 166.54 150.03 169.27 151.20 170.21 149.94 C 170.98 148.39 168.27 147.21 167.34 148.46 Z" />
</g>
<g id="#bbbfbeff">
<path fill="#bbbfbe" opacity="1.00" d=" M 236.09 22.12 C 238.37 23.04 240.64 24.01 242.89 25.03 C 242.86 29.15 243.02 33.29 243.74 37.36 C 241.01 40.28 238.49 43.40 235.81 46.37 C 235.62 38.28 236.69 30.20 236.09 22.12 Z" />
</g>
<g id="#cacac4ff">
<path fill="#cacac4" opacity="1.00" d=" M 149.25 23.24 C 151.16 25.42 153.28 27.40 155.94 28.63 C 155.51 31.68 154.04 34.70 151.17 36.12 C 146.93 37.94 142.08 37.18 137.78 38.81 C 135.81 39.65 136.28 42.20 136.07 43.92 C 136.26 55.62 136.08 67.32 136.38 79.02 C 136.24 82.76 136.96 86.87 135.29 90.34 C 131.89 94.41 125.72 93.51 121.89 90.55 C 124.45 88.93 127.31 87.05 128.14 83.94 C 128.53 81.99 128.41 79.99 128.41 78.02 C 128.07 63.61 128.41 49.19 128.16 34.78 C 133.27 34.56 138.45 35.07 143.52 34.27 C 148.31 33.03 150.06 27.71 149.25 23.24 Z" />
<path fill="#cacac4" opacity="1.00" d=" M 310.84 141.60 C 311.02 140.83 311.07 138.99 312.35 139.52 C 313.25 140.05 313.87 140.91 314.60 141.64 C 313.32 142.58 312.07 142.57 310.84 141.60 Z" />
</g>
<g id="#c1c9caff">
<path fill="#c1c9ca" opacity="1.00" d=" M 260.56 44.00 C 265.89 38.65 270.86 32.97 275.71 27.18 C 277.18 28.85 278.69 30.50 280.22 32.13 C 276.08 37.98 270.67 42.76 266.32 48.45 C 264.40 46.97 262.47 45.49 260.56 44.00 Z" />
</g>
<g id="#6d7e85ff">
<path fill="#6d7e85" opacity="1.00" d=" M 362.53 31.47 C 363.77 30.04 365.01 28.61 366.26 27.19 C 370.13 30.83 373.99 34.75 375.91 39.82 C 378.96 48.19 378.58 57.24 378.64 66.00 C 378.51 76.72 377.52 87.93 372.36 97.54 C 369.27 103.49 363.58 107.63 357.45 110.04 C 357.09 108.05 356.32 106.01 356.73 103.98 C 357.49 102.11 358.82 100.57 360.01 98.97 C 363.64 94.50 365.73 89.02 367.47 83.59 C 369.91 75.64 366.39 67.32 368.34 59.31 C 369.79 52.87 371.22 46.01 369.40 39.51 C 367.48 36.54 364.80 34.16 362.53 31.47 Z" />
</g>
<g id="#cccdcaff">
<path fill="#cccdca" opacity="1.00" d=" M 35.86 36.88 C 41.72 32.03 50.27 30.99 57.01 34.61 C 49.45 35.08 41.06 38.39 37.77 45.71 C 34.50 52.30 36.68 59.90 34.36 66.72 C 25.28 59.26 26.60 43.63 35.86 36.88 Z" />
</g>
<g id="#fbf7e9ff">
<path fill="#fbf7e9" opacity="1.00" d=" M 37.77 45.71 C 41.06 38.39 49.45 35.08 57.01 34.61 C 61.90 36.86 66.19 40.89 67.78 46.14 C 70.24 53.06 67.73 60.75 63.33 66.31 C 56.23 74.79 41.59 75.36 34.36 66.72 C 36.68 59.90 34.50 52.30 37.77 45.71 M 41.77 44.76 C 37.92 47.93 37.44 53.57 39.07 58.00 C 40.17 60.85 43.04 62.19 45.60 63.44 C 47.73 63.49 49.88 63.66 52.00 63.39 C 56.81 62.02 60.20 57.00 59.64 52.02 C 59.84 48.08 56.64 45.36 53.97 43.01 C 49.91 42.33 44.84 41.19 41.77 44.76 Z" />
</g>
<g id="#cd3f4cff">
<path fill="#cd3f4c" opacity="1.00" d=" M 41.77 44.76 C 44.84 41.19 49.91 42.33 53.97 43.01 C 53.34 44.55 52.71 46.09 52.10 47.63 C 49.10 46.57 45.58 44.24 42.52 46.41 C 39.48 48.00 39.56 51.79 38.93 54.70 C 42.83 56.45 46.91 57.78 51.13 58.50 C 49.33 60.19 47.44 61.79 45.60 63.44 C 43.04 62.19 40.17 60.85 39.07 58.00 C 37.44 53.57 37.92 47.93 41.77 44.76 Z" />
</g>
<g id="#a32e3bff">
<path fill="#a32e3b" opacity="1.00" d=" M 52.10 47.63 C 52.71 46.09 53.34 44.55 53.97 43.01 C 56.64 45.36 59.84 48.08 59.64 52.02 C 60.20 57.00 56.81 62.02 52.00 63.39 C 49.88 63.66 47.73 63.49 45.60 63.44 C 47.44 61.79 49.33 60.19 51.13 58.50 C 52.07 57.26 53.06 56.01 53.60 54.53 C 53.79 52.15 52.71 49.89 52.10 47.63 Z" />
</g>
<g id="#f3ebe0ff">
<path fill="#f3ebe0" opacity="1.00" d=" M 177.74 43.83 C 180.84 48.76 182.74 54.30 185.07 59.60 C 180.50 59.65 175.92 59.67 171.35 59.46 C 173.81 54.38 175.74 49.09 177.74 43.83 Z" />
</g>
<g id="#a0aeb5ff">
<path fill="#a0aeb5" opacity="1.00" d=" M 254.77 50.81 C 256.63 48.49 258.53 46.19 260.56 44.00 C 262.47 45.49 264.40 46.97 266.32 48.45 C 263.88 50.89 261.14 53.00 258.38 55.05 C 257.17 53.64 255.97 52.22 254.77 50.81 Z" />
<path fill="#a0aeb5" opacity="1.00" d=" M 198.86 150.58 C 200.04 149.78 201.21 148.95 202.38 148.13 C 204.32 149.00 206.27 149.88 208.25 150.70 C 205.13 150.38 201.98 150.28 198.86 150.58 Z" />
</g>
<g id="#fa4557ff">
<path fill="#fa4557" opacity="1.00" d=" M 42.52 46.41 C 45.58 44.24 49.10 46.57 52.10 47.63 C 52.71 49.89 53.79 52.15 53.60 54.53 C 53.06 56.01 52.07 57.26 51.13 58.50 C 46.91 57.78 42.83 56.45 38.93 54.70 C 39.56 51.79 39.48 48.00 42.52 46.41 Z" />
</g>
<g id="#5b737dff">
<path fill="#5b737d" opacity="1.00" d=" M 91.82 71.84 C 95.23 65.52 94.68 57.98 97.95 51.64 C 99.00 53.49 100.16 55.36 100.51 57.51 C 101.95 65.67 100.98 74.01 101.95 82.21 C 102.46 86.69 104.70 90.67 107.05 94.43 C 104.37 96.53 101.71 98.64 99.10 100.82 C 91.08 94.99 80.63 94.72 71.20 96.21 C 65.70 97.88 63.45 104.01 61.96 109.02 C 57.65 103.22 50.01 100.29 42.96 102.16 C 46.36 101.41 49.83 101.03 53.29 100.56 C 50.77 100.01 48.27 99.43 45.74 98.98 C 64.75 100.51 84.14 89.42 91.82 71.84 Z" />
</g>
<g id="#bec3c3ff">
<path fill="#bec3c3" opacity="1.00" d=" M 236.38 72.36 C 238.05 69.48 240.78 67.41 243.04 65.01 C 244.48 66.46 245.92 67.91 247.33 69.40 C 246.71 69.41 245.49 69.43 244.88 69.44 C 243.98 74.06 244.12 78.80 243.29 83.42 C 241.62 88.00 236.22 89.06 232.09 90.29 C 233.34 88.49 234.92 86.84 235.68 84.75 C 236.64 80.68 235.80 76.46 236.38 72.36 Z" />
</g>
<g id="#dad6ccff">
<path fill="#dad6cc" opacity="1.00" d=" M 278.46 80.22 C 280.54 81.87 282.62 83.52 284.71 85.17 C 283.24 90.63 276.60 94.42 271.61 90.74 C 275.87 89.14 279.47 85.03 278.46 80.22 Z" />
</g>
<g id="#4e6b77ff">
<path fill="#4e6b77" opacity="1.00" d=" M 246.21 83.02 C 251.44 88.28 256.11 94.10 262.02 98.65 C 260.72 99.18 259.43 99.71 258.13 100.24 C 253.09 96.74 247.09 95.27 241.04 94.90 C 242.65 90.89 244.44 86.96 246.21 83.02 Z" />
</g>
<g id="#647c86ff">
<path fill="#647c86" opacity="1.00" d=" M 164.97 95.96 C 167.44 92.28 169.09 88.06 171.99 84.70 C 176.66 84.32 181.35 84.57 186.02 84.49 C 188.35 88.23 190.75 91.94 193.76 95.18 C 191.38 96.81 189.16 98.65 187.13 100.69 C 184.67 98.68 182.13 96.54 178.95 95.84 C 174.33 94.91 169.61 95.54 164.97 95.96 Z" />
</g>
<g id="#5c7078ff">
<path fill="#5c7078" opacity="1.00" d=" M 284.09 95.43 C 285.70 93.62 287.31 91.80 288.90 89.97 C 293.83 93.47 299.27 96.23 305.12 97.81 C 304.29 97.90 302.63 98.07 301.80 98.16 C 303.75 99.67 305.75 101.11 307.81 102.47 C 301.38 105.47 296.51 111.13 294.21 117.81 C 294.05 117.56 293.73 117.07 293.57 116.82 C 294.94 113.85 297.25 110.66 295.93 107.26 C 294.39 101.46 288.76 98.44 284.09 95.43 Z" />
</g>
<g id="#49646ffe">
<path fill="#49646f" opacity="1.00" d=" M 23.91 91.17 C 30.31 95.75 37.94 98.23 45.74 98.98 C 48.27 99.43 50.77 100.01 53.29 100.56 C 49.83 101.03 46.36 101.41 42.96 102.16 C 40.99 102.71 39.19 103.70 37.46 104.76 C 33.23 99.95 28.29 95.84 23.91 91.17 Z" />
</g>
<g id="#4b636aff">
<path fill="#4b636a" opacity="1.00" d=" M 301.80 98.16 C 302.63 98.07 304.29 97.90 305.12 97.81 C 308.33 98.31 311.56 98.67 314.80 98.94 C 316.16 99.71 317.49 100.54 318.84 101.35 C 315.13 101.17 311.36 101.31 307.81 102.47 C 305.75 101.11 303.75 99.67 301.80 98.16 Z" />
</g>
<g id="#06191fff">
<path fill="#06191f" opacity="1.00" d=" M 109.52 103.72 C 112.18 103.68 114.84 103.82 117.45 104.34 C 117.43 114.22 118.05 124.17 117.11 134.01 C 114.93 135.92 111.95 134.99 109.42 134.53 C 108.28 128.41 108.79 122.16 108.73 115.97 C 108.69 111.87 108.96 107.78 109.52 103.72 Z" />
</g>
<g id="#06131aff">
<path fill="#06131a" opacity="1.00" d=" M 128.10 108.01 C 130.61 104.68 134.91 103.11 139.00 103.21 C 143.54 102.82 147.21 105.98 151.00 107.95 C 149.29 109.65 147.59 111.35 145.89 113.07 C 142.66 111.44 139.10 109.75 135.41 110.91 C 135.40 111.60 135.38 112.96 135.37 113.64 C 140.03 115.56 145.35 116.34 149.31 119.64 C 152.91 123.13 151.92 129.23 147.90 131.94 C 141.65 137.31 131.31 136.00 126.32 129.61 C 125.93 127.03 128.84 125.54 130.05 123.57 C 133.52 125.17 136.91 127.93 140.95 127.37 C 141.77 126.44 142.38 125.36 143.02 124.30 C 138.49 121.86 132.92 121.62 128.99 118.04 C 125.93 115.71 125.85 110.92 128.10 108.01 Z" />
</g>
<g id="#06151dff">
<path fill="#06151d" opacity="1.00" d=" M 231.37 115.64 C 229.35 109.08 235.86 103.37 242.03 103.37 C 246.76 102.96 250.99 105.53 254.72 108.10 C 253.06 109.78 251.41 111.46 249.80 113.19 C 246.47 111.60 241.37 108.61 238.88 113.07 C 243.55 115.57 249.15 116.24 253.32 119.64 C 256.56 122.95 255.38 128.32 252.35 131.35 C 247.38 136.66 238.53 136.21 232.95 132.11 C 231.76 131.06 229.86 130.11 230.14 128.24 C 231.33 126.66 232.78 125.31 234.11 123.86 C 236.99 125.22 239.83 126.91 243.01 127.43 C 245.10 127.94 246.03 125.88 247.10 124.55 C 241.80 121.83 233.96 121.96 231.37 115.64 Z" />
<path fill="#06151d" opacity="1.00" d=" M 195.29 103.94 C 197.71 103.78 200.14 103.90 202.54 104.21 C 202.56 109.49 202.56 114.77 202.65 120.05 C 202.47 123.36 205.39 127.08 208.94 126.42 C 211.40 125.98 213.78 123.69 213.48 121.05 C 213.39 115.51 213.43 109.97 213.55 104.43 C 216.22 104.18 218.89 103.85 221.58 103.86 C 221.49 110.82 221.68 117.80 221.44 124.77 C 219.75 132.22 211.35 136.92 204.05 134.98 C 198.64 133.71 195.46 128.15 194.66 123.03 C 194.80 116.67 194.62 110.28 195.29 103.94 Z" />
</g>
<g id="#06141cff">
<path fill="#06141c" opacity="1.00" d=" M 264.21 110.24 C 265.70 105.30 271.26 103.22 276.00 103.40 C 280.36 103.07 284.07 105.78 287.58 107.98 C 286.09 109.75 284.60 111.51 283.12 113.29 C 280.23 112.05 277.31 110.14 274.02 110.56 C 272.60 110.78 271.53 112.24 272.31 113.59 C 277.31 116.15 284.23 116.17 287.37 121.51 C 288.09 124.61 288.05 128.28 285.82 130.78 C 280.16 137.87 267.63 136.38 262.99 128.89 C 263.44 126.63 265.59 125.33 266.94 123.62 C 270.53 126.20 276.93 129.93 280.06 124.88 C 275.96 122.11 270.65 122.17 266.57 119.41 C 264.17 117.16 262.58 113.38 264.21 110.24 Z" />
</g>
<g id="#08171cff">
<path fill="#08171c" opacity="1.00" d=" M 72.26 104.40 C 80.22 103.40 90.11 102.41 96.09 108.92 C 103.23 116.14 100.22 129.90 90.91 133.74 C 85.05 135.76 78.71 135.48 72.60 135.17 C 72.22 124.92 72.22 114.65 72.26 104.40 M 80.36 111.51 C 80.66 116.60 80.51 121.69 80.42 126.79 C 83.25 126.66 86.45 126.76 88.63 124.62 C 92.13 121.92 91.87 116.22 88.62 113.43 C 86.50 111.14 83.15 111.76 80.36 111.51 Z" />
</g>
<g id="#08171dff">
<path fill="#08171d" opacity="1.00" d=" M 159.01 115.28 C 160.53 107.79 168.49 102.46 175.98 103.62 C 180.19 104.48 183.90 106.89 186.89 109.93 C 185.22 111.60 183.54 113.25 181.90 114.95 C 179.17 112.26 175.06 110.19 171.34 112.25 C 165.60 114.60 166.22 123.94 171.86 126.01 C 175.46 127.78 179.23 125.86 181.98 123.48 C 183.91 125.00 185.82 126.56 187.73 128.12 C 183.65 133.35 176.66 136.69 170.05 134.76 C 161.72 132.93 156.71 123.30 159.01 115.28 Z" />
</g>
<g id="#8e3746ff">
<path fill="#8e3746" opacity="1.00" d=" M 44.32 110.21 C 51.99 106.57 60.27 117.46 54.96 124.02 C 52.02 129.21 44.20 128.61 40.90 124.14 C 37.18 119.80 39.24 112.49 44.32 110.21 M 44.40 113.30 C 42.93 114.45 42.22 116.31 42.03 118.12 C 41.07 123.88 52.06 125.44 52.52 119.58 C 52.92 117.51 52.82 115.20 51.55 113.43 C 49.27 112.67 46.68 112.39 44.40 113.30 Z" />
</g>
<g id="#80313eff">
<path fill="#80313e" opacity="1.00" d=" M 311.39 110.46 C 316.82 108.61 322.97 113.35 322.68 119.00 C 322.91 122.59 320.27 125.64 317.25 127.19 C 314.08 128.22 310.24 127.67 307.94 125.10 C 303.48 120.85 305.72 112.44 311.39 110.46 M 311.45 113.45 C 308.68 114.77 308.54 118.15 307.98 120.76 C 310.37 122.00 313.01 124.49 315.86 122.95 C 319.34 121.98 319.56 117.53 318.22 114.79 C 316.79 112.61 313.65 112.97 311.45 113.45 Z" />
</g>
<g id="#faf9f5ff">
<path fill="#faf9f5" opacity="1.00" d=" M 80.36 111.51 C 83.15 111.76 86.50 111.14 88.62 113.43 C 91.87 116.22 92.13 121.92 88.63 124.62 C 86.45 126.76 83.25 126.66 80.42 126.79 C 80.51 121.69 80.66 116.60 80.36 111.51 Z" />
</g>
<g id="#d93449ff">
<path fill="#d93449" opacity="1.00" d=" M 44.40 113.30 C 46.68 112.39 49.27 112.67 51.55 113.43 C 52.82 115.20 52.92 117.51 52.52 119.58 C 52.06 125.44 41.07 123.88 42.03 118.12 C 42.22 116.31 42.93 114.45 44.40 113.30 Z" />
</g>
<g id="#d6314dff">
<path fill="#d6314d" opacity="1.00" d=" M 311.45 113.45 C 313.65 112.97 316.79 112.61 318.22 114.79 C 319.56 117.53 319.34 121.98 315.86 122.95 C 313.01 124.49 310.37 122.00 307.98 120.76 C 308.54 118.15 308.68 114.77 311.45 113.45 Z" />
</g>
<g id="#607b84ff">
<path fill="#607b84" opacity="1.00" d=" M 52.78 134.90 C 56.98 133.54 59.99 130.14 63.19 127.30 C 63.65 130.31 63.79 133.41 64.84 136.30 C 66.15 139.13 68.86 140.98 71.44 142.58 C 66.79 144.08 62.14 146.64 57.08 145.55 C 50.35 144.13 45.04 139.32 40.15 134.77 C 44.29 135.46 48.68 136.21 52.78 134.90 Z" />
</g>
<g id="#a9b0aee8">
<path fill="#a9b0ae" opacity="0.91" d=" M 167.34 148.46 C 168.27 147.21 170.98 148.39 170.21 149.94 C 169.27 151.20 166.54 150.03 167.34 148.46 Z" />
</g>
</svg>
